<svg xmlns="http://www.w3.org/2000/svg" width="1200" height="800" viewBox="0 0 1200 800" role="img" aria-label="Aptura OS classic installer welcome">
  <defs>
    <pattern id="dither" width="16" height="16" patternUnits="userSpaceOnUse">
      <rect width="16" height="16" fill="#008080"/>
      <rect width="8" height="8" fill="#007070"/>
      <rect x="8" y="8" width="8" height="8" fill="#007070"/>
    </pattern>
  </defs>
  <rect width="1200" height="800" fill="url(#dither)"/>
  <rect x="180" y="120" width="840" height="500" fill="#c0c0c0" stroke="#000000" stroke-width="8"/>
  <path d="M188 128H1012V612" fill="none" stroke="#ffffff" stroke-width="6"/>
  <path d="M1020 128V620H188" fill="none" stroke="#808080" stroke-width="6"/>
  <rect x="204" y="148" width="792" height="68" fill="#000080" stroke="#000000" stroke-width="6"/>
  <text x="244" y="195" fill="#ffffff" font-family="Arial, Helvetica, sans-serif" font-size="34" font-weight="700">APTURA SETUP</text>
  <g fill="#c0c0c0" stroke="#000000" stroke-width="4">
    <rect x="858" y="165" width="28" height="28"/>
    <rect x="900" y="165" width="28" height="28"/>
    <rect x="942" y="165" width="28" height="28"/>
  </g>
  <rect x="260" y="290" width="250" height="180" fill="#ffffff" stroke="#000000" stroke-width="5"/>
  <path d="M320 425L385 326L450 425L385 490Z" fill="none" stroke="#000080" stroke-width="14"/>
  <path d="M354 425L385 380L416 425L385 456Z" fill="#ffff00" stroke="#000000" stroke-width="5"/>
  <text x="570" y="340" fill="#000000" font-family="Arial, Helvetica, sans-serif" font-size="44" font-weight="700">Install Aptura OS</text>
  <text x="570" y="400" fill="#000000" font-family="Courier New, monospace" font-size="28">Classic XFCE workstation</text>
  <rect x="570" y="455" width="280" height="58" fill="#c0c0c0" stroke="#000000" stroke-width="5"/>
  <path d="M580 465H840V503" fill="none" stroke="#ffffff" stroke-width="4"/>
  <path d="M850 465V513H580" fill="none" stroke="#808080" stroke-width="4"/>
  <text x="710" y="493" text-anchor="middle" fill="#000000" font-family="Arial, Helvetica, sans-serif" font-size="25">Continue</text>
  <rect y="710" width="1200" height="90" fill="#c0c0c0" stroke="#000000" stroke-width="6"/>
  <text x="600" y="765" text-anchor="middle" fill="#000000" font-family="Courier New, monospace" font-size="24">Aptura Classic: window borders, icons, colors, and XFCE defaults</text>
</svg>
