<svg xmlns="http://www.w3.org/2000/svg" width="1200" height="800" viewBox="0 0 1200 800" role="img" aria-label="Aptura OS installer welcome">
  <defs>
    <linearGradient id="sky" x1="0" y1="0" x2="0" y2="1">
      <stop offset="0" stop-color="#11142b"/>
      <stop offset="0.48" stop-color="#12142b"/>
      <stop offset="1" stop-color="#0d1026"/>
    </linearGradient>
    <linearGradient id="sun" x1="0" y1="0" x2="0" y2="1">
      <stop offset="0" stop-color="#ffe45c"/>
      <stop offset="1" stop-color="#ff4fd8"/>
    </linearGradient>
    <pattern id="stars" width="90" height="90" patternUnits="userSpaceOnUse">
      <rect width="90" height="90" fill="none"/>
      <rect x="14" y="22" width="4" height="4" fill="#f4f0df"/>
      <rect x="68" y="14" width="3" height="3" fill="#00d9c0"/>
      <rect x="42" y="70" width="4" height="4" fill="#ffe45c"/>
    </pattern>
    <clipPath id="sunClip">
      <circle cx="600" cy="295" r="118"/>
    </clipPath>
  </defs>

  <rect width="1200" height="800" fill="url(#sky)"/>
  <rect width="1200" height="800" fill="url(#stars)" opacity="0.55"/>

  <g clip-path="url(#sunClip)">
    <circle cx="600" cy="295" r="118" fill="url(#sun)"/>
    <g stroke="#12142b" stroke-width="12">
      <path d="M470 254H730"/>
      <path d="M462 293H738"/>
      <path d="M478 332H722"/>
      <path d="M520 371H680"/>
    </g>
  </g>

  <path d="M0 490L170 380L300 470L430 350L560 476L700 372L840 488L1000 344L1200 490V800H0Z" fill="#090b18"/>
  <path d="M0 525L130 452L260 530L384 438L520 542L660 442L790 526L934 430L1200 535V800H0Z" fill="#12142b"/>

  <g stroke="#00d9c0" stroke-width="2" opacity="0.8">
    <path d="M0 612H1200"/>
    <path d="M0 656H1200"/>
    <path d="M0 705H1200"/>
    <path d="M0 760H1200"/>
    <path d="M600 545L120 800"/>
    <path d="M600 545L300 800"/>
    <path d="M600 545L480 800"/>
    <path d="M600 545L720 800"/>
    <path d="M600 545L900 800"/>
    <path d="M600 545L1080 800"/>
  </g>

  <rect x="130" y="110" width="940" height="430" rx="0" fill="#c8c6bc" stroke="#05070a" stroke-width="8"/>
  <path d="M140 120H1060V530" fill="none" stroke="#f4f0df" stroke-width="6"/>
  <path d="M1070 120V540H140" fill="none" stroke="#686a72" stroke-width="6"/>
  <rect x="156" y="142" width="888" height="66" fill="#11142b" stroke="#05070a" stroke-width="6"/>
  <text x="202" y="185" fill="#f4f0df" font-family="Arial, Helvetica, sans-serif" font-size="32" font-weight="700">Aptura Shell Installer</text>
  <g fill="#c8c6bc" stroke="#05070a" stroke-width="4">
    <rect x="902" y="160" width="28" height="28"/>
    <rect x="944" y="160" width="28" height="28"/>
    <rect x="986" y="160" width="28" height="28"/>
  </g>

  <rect x="226" y="260" width="236" height="200" fill="#101318" stroke="#05070a" stroke-width="5"/>
  <path d="M344 296L422 428H383L366 390H323L306 428H266Z" fill="#f4f0df" stroke="#05070a" stroke-width="6" stroke-linejoin="round"/>
  <text x="344" y="381" text-anchor="middle" fill="#00d9c0" stroke="#05070a" stroke-width="3" paint-order="stroke" font-family="Arial, Helvetica, sans-serif" font-size="58" font-weight="700">A</text>
  <rect x="318" y="378" width="54" height="18" fill="#ffe45c" stroke="#05070a" stroke-width="5"/>
  <path d="M274 448H414" stroke="#ff4fd8" stroke-width="12"/>

  <text x="520" y="315" fill="#05070a" font-family="Arial, Helvetica, sans-serif" font-size="46" font-weight="700">Install Aptura OS</text>
  <text x="520" y="375" fill="#101318" font-family="Courier New, monospace" font-size="28">Shell workstation</text>
  <text x="520" y="414" fill="#101318" font-family="Courier New, monospace" font-size="21">Aptura Shell, Wayland defaults, local tools</text>
  <rect x="520" y="442" width="300" height="58" fill="#00d9c0" stroke="#05070a" stroke-width="5"/>
  <path d="M530 452H810V490" fill="none" stroke="#f4f0df" stroke-width="4"/>
  <path d="M820 452V500H530" fill="none" stroke="#0d4f68" stroke-width="4"/>
  <text x="670" y="480" text-anchor="middle" fill="#05070a" font-family="Arial, Helvetica, sans-serif" font-size="25" font-weight="700">Continue</text>

  <rect y="710" width="1200" height="90" fill="#101318" stroke="#00d9c0" stroke-width="5"/>
  <text x="600" y="765" text-anchor="middle" fill="#f4f0df" font-family="Courier New, monospace" font-size="23">Aptura Shell: logo, boot, greeter, installer, icons, colors, and wallpaper</text>
</svg>
