<svg xmlns="http://www.w3.org/2000/svg" width="3840" height="2160" viewBox="0 0 3840 2160" role="img" aria-label="Aptura OS COSMIC desktop wallpaper">
  <defs>
    <pattern id="dither" width="16" height="16" patternUnits="userSpaceOnUse">
      <rect width="16" height="16" fill="#008080"/>
      <rect width="8" height="8" fill="#007070"/>
      <rect x="8" y="8" width="8" height="8" fill="#007070"/>
    </pattern>
    <filter id="hard-shadow" x="-10%" y="-10%" width="120%" height="120%">
      <feDropShadow dx="24" dy="24" stdDeviation="0" flood-color="#000000" flood-opacity="0.65"/>
    </filter>
  </defs>

  <rect width="3840" height="2160" fill="url(#dither)"/>

  <g filter="url(#hard-shadow)">
    <rect x="500" y="360" width="1260" height="820" fill="#c0c0c0" stroke="#000000" stroke-width="8"/>
    <path d="M508 368H1752V1172" fill="none" stroke="#ffffff" stroke-width="6"/>
    <path d="M1760 368V1180H508" fill="none" stroke="#808080" stroke-width="6"/>
    <rect x="520" y="388" width="1220" height="72" fill="#000080" stroke="#000000" stroke-width="6"/>
    <text x="560" y="438" fill="#ffffff" font-family="Arial, Helvetica, sans-serif" font-size="34" font-weight="700">APTURA OS</text>
    <g fill="#c0c0c0" stroke="#000000" stroke-width="4">
      <rect x="1600" y="406" width="34" height="34"/>
      <rect x="1648" y="406" width="34" height="34"/>
      <rect x="1696" y="406" width="34" height="34"/>
    </g>
    <rect x="580" y="540" width="430" height="300" fill="#101318" stroke="#000000" stroke-width="5"/>
    <path d="M795 592L954 806H870L836 740H754L720 806H636Z" fill="#f4f0df" stroke="#000000" stroke-width="10" stroke-linejoin="round"/>
    <path d="M795 658L834 720H756Z" fill="#008080" stroke="#000000" stroke-width="8" stroke-linejoin="round"/>
    <rect x="748" y="730" width="94" height="28" fill="#ffff00" stroke="#000000" stroke-width="8"/>
    <path d="M640 812H948" stroke="#000080" stroke-width="14"/>
    <rect x="1100" y="560" width="560" height="42" fill="#000000"/>
    <rect x="1100" y="640" width="420" height="42" fill="#000000"/>
    <rect x="1100" y="720" width="500" height="42" fill="#000080"/>
    <rect x="1100" y="840" width="260" height="78" fill="#c0c0c0" stroke="#000000" stroke-width="5"/>
    <path d="M1110 850H1350V910" fill="none" stroke="#ffffff" stroke-width="4"/>
    <path d="M1360 850V920H1110" fill="none" stroke="#808080" stroke-width="4"/>
  </g>

  <g filter="url(#hard-shadow)">
    <rect x="1840" y="620" width="1160" height="660" fill="#c0c0c0" stroke="#000000" stroke-width="8"/>
    <path d="M1848 628H2992V1272" fill="none" stroke="#ffffff" stroke-width="6"/>
    <path d="M3000 628V1280H1848" fill="none" stroke="#808080" stroke-width="6"/>
    <rect x="1860" y="648" width="1120" height="72" fill="#808080" stroke="#000000" stroke-width="6"/>
    <text x="1900" y="698" fill="#ffffff" font-family="Arial, Helvetica, sans-serif" font-size="34" font-weight="700">FILES</text>
    <rect x="1910" y="790" width="1010" height="380" fill="#ffffff" stroke="#000000" stroke-width="5"/>
    <g fill="#ffff00" stroke="#000000" stroke-width="5">
      <path d="M1990 870H2150L2190 912H2350V1030H1990Z"/>
      <path d="M2470 870H2630L2670 912H2830V1030H2470Z"/>
    </g>
    <rect x="1990" y="1084" width="840" height="34" fill="#000080"/>
  </g>

  <g filter="url(#hard-shadow)">
    <rect x="1040" y="1240" width="1600" height="470" fill="#c0c0c0" stroke="#000000" stroke-width="8"/>
    <path d="M1048 1248H2632V1702" fill="none" stroke="#ffffff" stroke-width="6"/>
    <path d="M2640 1248V1710H1048" fill="none" stroke="#808080" stroke-width="6"/>
    <rect x="1060" y="1268" width="1560" height="72" fill="#000080" stroke="#000000" stroke-width="6"/>
    <text x="1100" y="1318" fill="#ffffff" font-family="Arial, Helvetica, sans-serif" font-size="34" font-weight="700">APTURA COSMIC SETUP</text>
    <text x="1130" y="1448" fill="#000000" font-family="Arial, Helvetica, sans-serif" font-size="48" font-weight="700">Aptura OS</text>
    <text x="1130" y="1518" fill="#000000" font-family="Courier New, monospace" font-size="34">COSMIC workstation</text>
    <rect x="1130" y="1580" width="390" height="70" fill="#c0c0c0" stroke="#000000" stroke-width="5"/>
    <path d="M1140 1590H1510V1640" fill="none" stroke="#ffffff" stroke-width="4"/>
    <path d="M1520 1590V1650H1140" fill="none" stroke="#808080" stroke-width="4"/>
    <text x="1325" y="1628" text-anchor="middle" fill="#000000" font-family="Arial, Helvetica, sans-serif" font-size="30">OK</text>
  </g>

  <rect y="2010" width="3840" height="150" fill="#c0c0c0" stroke="#000000" stroke-width="8"/>
  <path d="M8 2018H3832" stroke="#ffffff" stroke-width="6"/>
  <rect x="32" y="2030" width="220" height="98" fill="#c0c0c0" stroke="#000000" stroke-width="5"/>
  <path d="M42 2040H242V2118" fill="none" stroke="#ffffff" stroke-width="4"/>
  <path d="M252 2040V2128H42" fill="none" stroke="#808080" stroke-width="4"/>
  <text x="142" y="2094" text-anchor="middle" fill="#000000" font-family="Arial, Helvetica, sans-serif" font-size="32" font-weight="700">Aptura</text>
</svg>
