<?xml version="1.0" standalone="no"?>
<!DOCTYPE svg PUBLIC "-//W3C//DTD SVG 20010904//EN"
 "http://www.w3.org/TR/2001/REC-SVG-20010904/DTD/svg10.dtd">
<svg version="1.0" xmlns="http://www.w3.org/2000/svg"
 width="1672.000000pt" height="941.000000pt" viewBox="0 0 1672.000000 941.000000"
 preserveAspectRatio="xMidYMid meet">

<g transform="translate(0.000000,941.000000) scale(0.100000,-0.100000)"
fill="#000000" stroke="none">
<path d="M0 4705 l0 -4705 8360 0 8360 0 0 4705 0 4705 -8360 0 -8360 0 0
-4705z m7220 3951 c0 -6 -93 -37 -97 -32 -2 2 15 11 39 19 47 17 58 19 58 13z
m-111 -40 c-2 -2 -103 -43 -224 -91 -1199 -477 -2188 -1045 -3112 -1787 -290
-232 -485 -409 -789 -712 -536 -535 -929 -1023 -1378 -1708 -54 -82 -99 -148
-102 -148 -19 0 198 341 394 620 165 234 463 620 545 708 17 17 28 32 24 32
-3 0 13 20 37 44 25 24 56 61 69 82 25 39 304 342 427 463 86 86 312 295 436
403 106 92 152 130 253 205 36 26 85 67 109 90 25 23 49 40 54 37 4 -3 8 0 8
5 0 6 5 11 10 11 6 0 56 35 113 78 56 43 170 126 252 183 614 431 1148 738
1845 1061 382 177 1070 461 1029 424z m9391 -2760 c0 -2 -8 -10 -17 -17 -16
-13 -17 -12 -4 4 13 16 21 21 21 13z m-80 -60 c-8 -7 -109 -81 -225 -163 -300
-214 -832 -596 -955 -686 -58 -43 -147 -107 -197 -144 -51 -36 -90 -69 -88
-74 3 -4 -3 -14 -13 -21 -41 -29 -118 -96 -162 -139 -25 -25 -55 -49 -67 -53
-12 -4 -25 -16 -28 -26 -7 -22 -40 -57 -119 -125 -32 -27 -73 -65 -90 -83 -17
-19 -55 -58 -83 -88 -29 -30 -53 -58 -53 -62 0 -4 -9 -14 -20 -22 -11 -8 -20
-20 -20 -26 0 -6 -10 -23 -21 -38 l-22 -27 37 6 c30 6 36 4 36 -10 0 -11 -5
-15 -15 -11 -19 7 -73 -13 -60 -22 16 -11 11 -36 -11 -57 -31 -30 -49 -92 -32
-112 12 -15 11 -15 -10 -4 -13 7 -26 11 -28 8 -3 -2 108 -57 246 -122 137 -65
248 -120 247 -122 -2 -1 -80 31 -173 73 -380 170 -588 256 -544 225 13 -9 13
-11 -2 -11 -10 0 -18 -6 -18 -12 0 -7 -10 -2 -21 12 l-20 25 12 -25 c7 -14 35
-61 62 -105 28 -44 57 -91 64 -105 14 -24 14 -24 -2 -5 -9 11 -48 67 -87 124
l-71 104 -24 -27 c-13 -15 -23 -23 -23 -19 -1 16 -32 -64 -159 -415 -268 -737
-342 -937 -354 -948 -7 -6 -106 -47 -222 -92 -442 -170 -1220 -478 -1710 -675
-443 -179 -666 -272 -1180 -497 -60 -26 -193 -84 -295 -128 -102 -44 -216 -94
-254 -111 -38 -17 -70 -30 -72 -28 -4 4 270 130 556 257 246 109 626 277 672
297 20 8 50 34 67 59 30 40 65 75 46 44 -24 -38 17 7 51 57 172 251 294 438
263 403 -21 -25 -22 -25 -15 -2 9 28 -8 52 -38 52 -12 0 -27 5 -34 12 -9 9
-12 9 -12 0 0 -7 -3 -11 -7 -10 -5 2 -17 -6 -29 -16 -21 -18 -104 -59 -104
-51 0 2 69 52 153 111 83 58 142 103 130 100 -12 -4 -40 -8 -62 -9 -22 0 -38
-4 -35 -8 5 -9 -46 -28 -76 -27 -14 0 -262 -79 -550 -175 -717 -240 -1598
-522 -1606 -514 -2 2 44 19 103 37 432 131 2032 673 2317 783 l90 35 51 88
c187 322 239 410 248 419 10 11 -63 -129 -123 -235 -21 -36 -43 -76 -49 -90
l-12 -25 20 25 c17 21 21 22 21 7 0 -17 2 -17 33 -1 31 17 32 17 17 -2 -8 -10
-19 -22 -25 -26 -18 -13 5 -8 36 7 16 9 33 14 38 11 4 -3 17 2 27 10 10 9 12
13 4 9 -19 -9 23 27 78 66 24 17 50 28 58 25 8 -3 13 -2 10 3 -3 5 1 12 10 15
10 4 13 2 9 -7 -4 -6 -1 -5 7 3 7 8 20 16 28 18 8 2 20 8 25 14 7 8 6 8 -4 3
-9 -5 -12 -4 -7 3 4 6 12 9 19 7 7 -3 23 5 37 16 14 11 18 17 10 13 -13 -7
-13 -5 -2 8 7 9 22 16 32 15 20 -1 121 63 115 73 -2 4 14 17 35 29 22 12 40
20 40 16 0 -3 17 11 38 31 20 20 58 46 83 58 26 12 61 36 78 53 17 17 44 34
61 38 17 4 42 19 58 33 54 54 128 109 182 138 30 16 78 52 106 81 28 28 76 63
107 77 30 15 62 37 70 50 9 13 37 36 64 51 26 15 59 38 73 50 14 13 46 36 71
52 26 15 74 51 107 78 80 66 154 122 216 164 28 19 57 43 64 53 7 10 33 37 57
59 133 125 149 134 248 144 37 4 70 11 73 16 3 5 10 9 15 9 6 0 7 -5 3 -12 -4
-7 -3 -8 5 -4 6 4 9 11 6 16 -6 10 29 32 38 24 7 -8 14 -3 592 410 423 302
815 580 1340 951 72 51 198 140 280 198 143 102 177 123 145 93z m-13900 -200
c0 -2 -8 -10 -17 -17 -16 -13 -17 -12 -4 4 13 16 21 21 21 13z m-1120 -1606
c-6 -11 -13 -20 -16 -20 -2 0 0 9 6 20 6 11 13 20 16 20 2 0 0 -9 -6 -20z
m13330 -440 c19 -11 31 -19 25 -19 -5 0 -26 8 -45 19 -19 11 -30 19 -25 19 6
0 26 -8 45 -19z m-2940 -620 c-6 -11 -13 -20 -16 -20 -2 0 0 9 6 20 6 11 13
20 16 20 2 0 0 -9 -6 -20z m-9591 -452 c52 -112 96 -206 99 -211 2 -4 0 -7 -5
-6 -17 4 -63 -21 -96 -54 l-34 -35 -54 109 c-29 60 -56 109 -60 109 -7 0 -359
-715 -359 -731 0 -6 19 6 43 28 88 81 291 226 363 259 28 13 78 27 110 30 50
5 67 3 102 -15 41 -21 58 -36 27 -25 -8 4 -15 1 -15 -5 0 -6 -9 -11 -20 -11
-12 0 -28 -13 -40 -32 -19 -30 -19 -34 -4 -43 9 -5 27 -19 38 -30 12 -11 15
-15 6 -8 -66 51 -201 59 -290 17 -30 -14 -66 -30 -80 -35 -24 -9 -24 -8 -6 6
20 15 33 50 15 39 -5 -3 -7 -10 -4 -15 3 -5 0 -6 -7 -4 -8 3 -25 -7 -38 -21
-22 -24 -23 -26 -5 -21 15 5 12 0 -10 -19 -16 -15 -77 -70 -135 -123 -138
-126 -230 -205 -235 -200 -4 5 69 162 388 826 111 233 204 423 207 423 3 0 48
-91 99 -202z m9531 148 c0 -2 -8 -10 -17 -17 -16 -13 -17 -12 -4 4 13 16 21
21 21 13z m-8471 -873 c31 -82 42 -137 15 -75 -13 29 -18 32 -59 32 -41 0 -46
-3 -59 -32 -26 -59 -17 -3 10 63 15 35 30 75 36 88 12 32 19 22 57 -76z m1309
61 c25 -28 30 -98 9 -125 -16 -21 -51 -39 -77 -39 -34 0 -80 53 -80 92 1 93
90 137 148 72z m213 26 c10 -6 19 -16 19 -22 0 -7 -5 -7 -14 1 -8 7 -30 11
-48 9 -28 -2 -33 -7 -33 -28 0 -19 8 -28 40 -40 57 -22 65 -28 65 -55 0 -27
-33 -55 -65 -55 -23 0 -65 26 -65 41 0 5 14 -1 31 -13 28 -21 32 -21 57 -7 40
22 35 50 -13 69 -58 22 -65 28 -65 59 0 41 49 63 91 41z m609 -92 c0 -69 -3
-98 -10 -88 -7 12 -12 12 -22 2 -35 -35 -88 4 -88 65 0 46 25 66 72 60 38 -5
38 -5 38 29 0 19 2 34 5 34 3 0 5 -46 5 -102z m320 1 c0 -121 -17 -125 -19 -4
-2 78 2 105 15 105 2 0 4 -45 4 -101z m115 92 c3 -5 1 -12 -5 -16 -5 -3 -10 1
-10 9 0 18 6 21 15 7z m-668 -95 c19 -49 32 -91 29 -94 -3 -3 -11 9 -17 26
-10 29 -15 32 -55 32 -39 0 -45 -4 -59 -31 -29 -54 -28 -23 0 53 52 136 55
137 102 14z m-1537 58 c0 -8 8 -15 18 -15 16 -1 16 -2 0 -6 -24 -6 -27 -113
-3 -113 8 0 15 -4 15 -10 0 -14 -23 -13 -38 2 -7 7 -12 36 -12 65 0 35 -4 53
-12 54 -10 0 -10 2 0 6 6 2 12 14 12 24 0 11 5 17 10 14 6 -3 10 -13 10 -21z
m-138 -31 c25 -22 23 -78 -3 -104 -20 -20 -32 -20 -71 -4 -14 5 -17 0 -21 -32
-2 -21 -4 5 -5 57 l-2 95 42 2 c27 2 48 -3 60 -14z m274 -81 c4 -19 10 -23 37
-20 32 3 32 4 35 61 4 82 22 70 22 -15 0 -45 -4 -68 -9 -59 -7 10 -13 11 -31
1 -17 -9 -29 -9 -46 -1 -22 10 -24 16 -22 73 1 43 2 50 5 23 2 -22 6 -50 9
-63z m234 85 c-21 -11 -26 -21 -31 -72 l-6 -60 -1 70 -2 70 33 2 c32 2 32 2 7
-10z m188 1 c7 -7 12 -39 12 -72 0 -41 -3 -56 -9 -47 -8 12 -12 12 -25 2 -20
-16 -56 -11 -70 12 -17 26 5 51 50 57 42 5 52 25 22 44 -13 8 -23 8 -38 -2
-27 -16 -35 -15 -20 3 15 18 61 20 78 3z m1410 0 c5 -7 13 -23 16 -35 7 -22 5
-23 -48 -23 -60 0 -68 -8 -36 -40 19 -19 40 -18 68 3 8 6 12 6 12 -1 0 -6 -9
-16 -21 -22 -68 -37 -129 58 -73 114 19 19 68 21 82 4z m229 -95 c-2 -21 -4
-4 -4 37 0 41 2 58 4 38 2 -21 2 -55 0 -75z m200 96 c8 -8 13 -32 12 -73 l-2
-61 -6 55 c-7 63 -15 80 -40 80 -29 0 -41 -22 -41 -77 0 -29 -4 -53 -10 -53
-6 0 -10 29 -10 68 l0 67 42 2 c23 2 47 -2 55 -8z m207 -5 c9 -8 16 -24 16
-35 0 -16 -7 -19 -50 -19 -37 0 -50 -4 -50 -14 0 -25 39 -46 67 -35 34 13 41
11 19 -6 -28 -21 -56 -19 -83 7 -43 40 -19 118 37 118 16 0 36 -7 44 -16z
m-3856 -30 c32 -49 24 -51 -10 -3 -15 21 -24 39 -20 39 4 0 17 -16 30 -36z
m7142 -844 c-19 -11 -39 -19 -45 -19 -5 0 6 8 25 19 19 11 40 19 45 19 6 0 -6
-8 -25 -19z m-90 -40 c-19 -11 -39 -19 -45 -19 -5 0 6 8 25 19 19 11 40 19 45
19 6 0 -6 -8 -25 -19z m-210 -95 c-14 -8 -29 -14 -35 -14 -5 0 1 6 15 14 14 8
30 14 35 14 6 0 -1 -6 -15 -14z m-129 -56 c-46 -21 -86 -39 -90 -38 -9 1 152
78 164 78 6 0 -28 -18 -74 -40z m-201 -91 c-58 -27 -190 -88 -295 -135 -104
-47 -212 -96 -238 -110 -27 -13 -51 -23 -53 -20 -5 5 177 92 456 218 226 103
309 133 130 47z"/>
<path d="M14919 4709 l-24 -20 28 17 c15 9 27 18 27 20 0 8 -8 4 -31 -17z"/>
<path d="M13677 3567 c-10 -18 -15 -22 -12 -10 5 20 3 21 -32 17 -21 -3 -48
-15 -62 -27 -20 -18 -23 -19 -18 -4 5 13 3 16 -6 10 -6 -4 -21 -9 -32 -10 -11
-2 -21 -8 -23 -13 -2 -6 -12 -10 -21 -10 -10 0 -26 -9 -35 -19 -10 -11 -41
-29 -69 -40 -29 -12 -59 -25 -67 -30 -8 -4 -53 -27 -100 -51 -47 -24 -108 -61
-136 -81 -28 -21 -79 -51 -112 -66 -33 -16 -80 -45 -103 -64 -23 -19 -71 -50
-108 -69 -37 -19 -89 -51 -116 -70 -28 -20 -63 -42 -80 -50 -16 -8 -43 -25
-60 -39 -16 -13 -50 -32 -75 -43 -25 -11 -53 -28 -63 -39 -19 -20 -122 -89
-135 -89 -4 0 -24 -16 -46 -35 -21 -19 -42 -35 -46 -35 -5 0 -15 -6 -22 -14
-8 -8 -37 -26 -64 -40 -66 -36 -119 -69 -141 -87 -10 -8 -47 -33 -83 -54 -36
-21 -84 -58 -107 -82 -23 -24 -49 -43 -56 -43 -8 0 -20 -7 -27 -15 -10 -12 -6
-15 29 -21 l42 -7 -28 -17 c-15 -9 -37 -27 -47 -39 -11 -11 -25 -21 -32 -21
-27 0 -24 -22 6 -56 17 -20 28 -39 25 -42 -4 -4 -20 9 -36 28 -15 19 -29 30
-29 24 0 -18 -71 -94 -86 -94 -19 0 -46 -25 -37 -34 4 -3 -1 -6 -10 -6 -10 0
-17 -7 -17 -15 0 -8 -13 -28 -30 -45 -16 -17 -30 -35 -30 -39 0 -5 -9 -11 -20
-14 -11 -3 -28 -20 -37 -38 -10 -18 -27 -42 -38 -54 -29 -30 -55 -71 -58 -92
-1 -10 -6 -24 -11 -31 -4 -7 15 1 43 18 28 18 53 36 56 41 4 5 11 9 18 9 6 0
-6 -15 -28 -32 -22 -18 -53 -46 -70 -61 -23 -23 -25 -25 -6 -13 23 14 26 14
43 0 9 -9 24 -14 33 -11 8 4 15 2 15 -3 0 -12 -37 -23 -52 -14 -7 4 -10 4 -6
-1 4 -4 0 -14 -10 -22 -9 -7 8 -4 38 8 30 12 78 29 105 39 28 10 156 59 285
110 129 50 291 113 360 140 408 158 1070 418 1177 461 109 45 125 55 137 83
56 134 389 1086 383 1093 -2 1 -11 -12 -20 -30z m-2367 -1647 c0 -5 -4 -10
-10 -10 -5 0 -10 5 -10 10 0 6 5 10 10 10 6 0 10 -4 10 -10z"/>
<path d="M3201 1797 c-6 -15 -14 -39 -17 -52 -6 -23 -3 -25 30 -25 41 0 43 7
16 65 l-18 40 -11 -28z"/>
<path d="M4460 1810 c-27 -27 -28 -100 -2 -123 29 -26 77 -22 101 9 59 75 -33
180 -99 114z"/>
<path d="M5301 1766 c-7 -8 -11 -32 -9 -53 3 -36 5 -38 38 -38 28 0 36 5 44
27 18 51 -41 102 -73 64z"/>
<path d="M5089 1775 c-18 -50 -16 -55 21 -55 15 0 29 2 32 5 6 6 -24 95 -32
95 -3 0 -12 -20 -21 -45z"/>
<path d="M3406 1758 c-9 -12 -16 -30 -16 -40 0 -19 34 -58 50 -58 19 0 50 40
50 63 0 27 -28 57 -53 57 -9 0 -23 -10 -31 -22z"/>
<path d="M4107 1713 c-13 -12 -7 -41 9 -47 21 -8 50 9 57 34 4 17 0 20 -27 20
-18 0 -36 -3 -39 -7z"/>
<path d="M5516 1764 c-23 -22 -11 -34 35 -34 42 0 44 2 29 31 -13 23 -43 25
-64 3z"/>
<path d="M6152 1768 c-23 -23 -13 -38 26 -38 48 0 57 8 35 32 -19 21 -44 23
-61 6z"/>
</g>
</svg>
