<?xml version="1.0" standalone="no"?>
<!DOCTYPE svg PUBLIC "-//W3C//DTD SVG 20010904//EN"
 "http://www.w3.org/TR/2001/REC-SVG-20010904/DTD/svg10.dtd">
<svg version="1.0" xmlns="http://www.w3.org/2000/svg"
 width="1672.000000pt" height="941.000000pt" viewBox="0 0 1672.000000 941.000000"
 preserveAspectRatio="xMidYMid meet">

<g transform="translate(0.000000,941.000000) scale(0.100000,-0.100000)"
fill="#000000" stroke="none">
<path d="M0 4705 l0 -4705 8360 0 8360 0 0 4705 0 4705 -8360 0 -8360 0 0
-4705z m12150 2145 c-6 -11 -13 -20 -16 -20 -2 0 0 9 6 20 6 11 13 20 16 20 2
0 0 -9 -6 -20z m-34 -57 c-8 -16 -22 -37 -31 -48 -16 -19 -17 -19 -3 5 8 14
20 35 27 48 6 12 14 22 17 22 2 0 -2 -12 -10 -27z m-71 -120 c-15 -27 -32 -52
-38 -58 -6 -5 2 13 18 40 15 28 30 53 32 58 2 4 7 7 10 7 2 0 -7 -21 -22 -47z
m-73 -125 c-162 -288 -744 -1451 -757 -1512 -7 -38 -22 -80 -48 -136 -13 -30
-32 -79 -42 -107 -9 -29 -21 -55 -26 -58 -5 -4 -9 -16 -9 -28 0 -12 -16 -55
-35 -94 -19 -40 -35 -75 -35 -78 0 -4 -11 -31 -25 -61 -14 -30 -25 -61 -25
-68 0 -8 -16 -37 -35 -66 -19 -29 -37 -63 -39 -76 -3 -13 -14 -37 -25 -53 -12
-16 -21 -33 -21 -38 0 -4 -27 -61 -59 -125 -33 -65 -63 -128 -67 -140 -4 -13
-17 -37 -30 -54 -13 -17 -24 -35 -24 -39 0 -5 -16 -32 -35 -62 -54 -82 -99
-153 -131 -207 -16 -26 -43 -64 -60 -85 -17 -20 -43 -57 -58 -84 -16 -26 -33
-50 -40 -55 -7 -4 -25 -25 -41 -47 -16 -22 -44 -56 -62 -75 -70 -76 -83 -91
-83 -98 0 -9 -35 -49 -110 -129 -32 -33 -65 -74 -74 -90 -8 -15 -40 -52 -70
-82 -58 -56 -70 -87 -14 -35 17 16 28 23 24 17 -9 -16 -263 -245 -381 -344
-191 -160 -608 -444 -850 -580 -426 -238 -934 -433 -1483 -569 -112 -28 -193
-40 -132 -20 30 10 -61 4 -172 -12 -42 -5 -81 -8 -86 -4 -5 3 -74 8 -153 11
-79 4 -218 15 -309 25 -91 11 -210 25 -265 31 -55 6 -138 20 -185 30 -47 10
-143 29 -213 40 -70 12 -126 24 -123 26 2 2 57 -3 122 -11 393 -51 886 -70
1191 -47 708 55 1276 222 1852 548 645 365 1242 995 1773 1873 232 383 389
677 795 1485 190 380 388 770 440 868 109 209 253 467 260 467 3 0 -8 -24 -25
-52z m2443 -527 c102 -211 184 -386 181 -388 -2 -2 -19 25 -37 62 -17 36 -36
68 -41 71 -13 8 -58 -24 -101 -73 -21 -24 -44 -43 -51 -43 -15 0 -56 -37 -56
-51 0 -6 4 -7 10 -4 5 3 7 0 4 -8 -3 -8 9 -43 26 -77 17 -34 29 -64 27 -66 -2
-2 -59 110 -127 248 l-122 253 -186 -372 c-103 -205 -188 -371 -189 -369 -2 1
19 51 47 109 52 110 61 138 34 99 l-15 -22 -20 22 c-10 13 -17 16 -14 8 4 -11
-1 -16 -14 -16 -15 0 -17 4 -10 17 5 10 9 21 8 26 0 4 -56 -102 -124 -237 -68
-135 -124 -242 -124 -239 -1 8 163 350 449 939 100 206 196 405 213 443 17 37
34 64 38 60 4 -5 91 -181 194 -392z m1581 358 c10 -17 -13 -36 -27 -22 -12 12
-4 33 11 33 5 0 12 -5 16 -11z m-1327 -894 c0 -5 -6 1 -14 15 -8 14 -14 30
-14 35 0 6 6 -1 14 -15 8 -14 14 -29 14 -35z m-245 -131 c3 -8 2 -12 -4 -9 -6
3 -10 10 -10 16 0 14 7 11 14 -7z m14 -141 c-15 -2 -42 -2 -60 0 -18 2 -6 4
27 4 33 0 48 -2 33 -4z m-111 -9 c-3 -3 -12 -4 -19 -1 -8 3 -5 6 6 6 11 1 17
-2 13 -5z m-67 -18 c-54 -20 -141 -66 -177 -92 -17 -13 -35 -24 -39 -24 -4 0
8 12 27 26 43 33 188 104 208 103 9 0 0 -6 -19 -13z m-544 -75 c-15 -28 -28
-51 -31 -51 -3 0 7 25 22 55 15 30 29 53 31 51 2 -2 -8 -27 -22 -55z m84 -215
c0 -2 -8 -10 -17 -17 -16 -13 -17 -12 -4 4 13 16 21 21 21 13z m-359 -105
c-23 -45 -43 -81 -46 -81 -3 0 5 21 18 48 14 26 32 64 42 85 10 21 20 36 22
33 2 -2 -14 -40 -36 -85z m319 75 c0 -2 -8 -10 -17 -17 -16 -13 -17 -12 -4 4
13 16 21 21 21 13z m-230 -290 c0 -2 -8 -10 -17 -17 -16 -13 -17 -12 -4 4 13
16 21 21 21 13z m-234 -73 c-14 -26 -25 -45 -26 -41 0 12 43 98 48 94 2 -2 -8
-26 -22 -53z m119 -28 c-134 -114 -215 -178 -220 -173 -3 3 25 28 62 56 38 28
102 80 143 116 41 35 79 65 83 65 5 1 -26 -28 -68 -64z m-915 -833 c18 -45 30
-85 28 -88 -3 -2 -11 9 -18 26 -11 27 -17 30 -55 30 -38 0 -44 -3 -55 -30 -24
-58 -21 -22 4 41 55 146 47 144 96 21z m1448 62 c32 -37 30 -88 -7 -125 -33
-32 -58 -36 -100 -14 -32 16 -41 33 -41 79 0 85 92 122 148 60z m220 30 c35
-10 26 -19 -20 -19 -39 0 -43 -2 -43 -24 0 -19 9 -27 45 -40 36 -13 46 -22 48
-43 4 -29 -28 -58 -63 -58 -25 0 -63 25 -53 35 4 4 14 0 23 -9 20 -19 45 -21
69 -3 30 22 16 50 -34 68 -37 14 -46 22 -48 45 -5 42 25 61 76 48z m669 -116
c-2 -24 -4 -5 -4 42 0 47 2 66 4 43 2 -24 2 -62 0 -85z m-1924 61 c22 -2 22
-2 0 -6 -20 -4 -23 -11 -23 -54 0 -42 3 -51 23 -59 22 -10 22 -10 -3 -7 -23 2
-25 6 -28 60 -2 31 -7 57 -12 57 -4 0 -3 11 3 25 11 23 12 23 15 5 2 -12 12
-21 25 -21z m-163 -34 c20 -52 -22 -105 -70 -90 -17 5 -20 2 -20 -24 0 -17 -4
-31 -10 -31 -6 0 -10 37 -10 91 0 69 3 90 13 86 6 -2 21 -1 32 3 26 10 54 -5
65 -35z m322 -79 c27 -17 56 18 61 73 3 38 4 35 5 -19 l2 -65 -37 -2 c-53 -3
-63 10 -61 76 l1 56 6 -54 c4 -35 12 -58 23 -65z m238 101 c-21 -10 -26 -21
-30 -67 -6 -68 -17 -55 -17 21 l0 56 36 1 c35 1 35 1 11 -11z m205 1 c2 -7 5
-37 8 -66 3 -37 1 -50 -6 -43 -7 7 -14 7 -23 0 -18 -15 -55 -7 -68 14 -9 15
-7 22 13 38 13 10 34 19 48 19 18 0 24 5 21 18 -3 13 -13 17 -41 16 -20 -1
-34 3 -31 7 8 14 74 11 79 -3z m1006 -15 c-12 -20 -14 -14 -5 12 4 9 9 14 11
11 3 -2 0 -13 -6 -23z m69 -8 c0 -5 -5 -3 -10 5 -5 8 -10 20 -10 25 0 6 5 3
10 -5 5 -8 10 -19 10 -25z m180 31 c0 -2 -8 -10 -17 -17 -16 -13 -17 -12 -4 4
13 16 21 21 21 13z m239 1 c-2 -1 -13 -9 -24 -17 -19 -14 -19 -14 -6 3 7 9 18
17 24 17 6 0 8 -1 6 -3z m46 -7 c3 -6 -1 -7 -9 -4 -18 7 -21 14 -7 14 6 0 13
-4 16 -10z m282 -82 c-2 -18 -4 -4 -4 32 0 36 2 50 4 33 2 -18 2 -48 0 -65z
m218 82 c3 -6 -1 -7 -9 -4 -18 7 -21 14 -7 14 6 0 13 -4 16 -10z m-818 -62
c-3 -7 -5 -2 -5 12 0 14 2 19 5 13 2 -7 2 -19 0 -25z m-236 -5 c-12 -20 -14
-14 -5 12 4 9 9 14 11 11 3 -2 0 -13 -6 -23z m67 10 c-10 -2 -26 -2 -35 0 -10
3 -2 5 17 5 19 0 27 -2 18 -5z m-333 -382 c7 -12 -12 -24 -25 -16 -11 7 -4 25
10 25 5 0 11 -4 15 -9z m-4275 -405 c0 -2 -8 -10 -17 -17 -16 -13 -17 -12 -4
4 13 16 21 21 21 13z m-4487 -1393 c-7 -2 -19 -2 -25 0 -7 3 -2 5 12 5 14 0
19 -2 13 -5z m60 -10 c-7 -2 -21 -2 -30 0 -10 3 -4 5 12 5 17 0 24 -2 18 -5z"/>
<path d="M14296 5627 c3 -10 9 -15 12 -12 3 3 0 11 -7 18 -10 9 -11 8 -5 -6z"/>
<path d="M12437 3672 c-9 -23 -17 -45 -17 -47 0 -3 16 -5 35 -5 40 0 40 1 16
54 l-17 40 -17 -42z"/>
<path d="M13852 3714 c-58 -24 -51 -127 11 -148 42 -15 81 18 85 74 5 67 -36
99 -96 74z"/>
<path d="M12673 3663 c-16 -6 -17 -75 -1 -91 27 -27 68 1 68 47 0 42 -28 60
-67 44z"/>
<path d="M13453 3613 c-18 -7 -16 -42 1 -49 22 -8 56 14 56 36 0 20 -27 26
-57 13z"/>
</g>
</svg>
