<?xml version="1.0" standalone="no"?>
<!DOCTYPE svg PUBLIC "-//W3C//DTD SVG 20010904//EN"
 "http://www.w3.org/TR/2001/REC-SVG-20010904/DTD/svg10.dtd">
<svg version="1.0" xmlns="http://www.w3.org/2000/svg"
 width="1672.000000pt" height="941.000000pt" viewBox="0 0 1672.000000 941.000000"
 preserveAspectRatio="xMidYMid meet">

<g transform="translate(0.000000,941.000000) scale(0.100000,-0.100000)"
fill="#000000" stroke="none">
<path d="M0 4705 l0 -4705 8360 0 8360 0 0 4705 0 4705 -8360 0 -8360 0 0
-4705z m12063 3760 c-3 -9 -8 -14 -10 -11 -3 3 -2 9 2 15 9 16 15 13 8 -4z
m-7603 -85 c0 -13 -7 -20 -20 -20 -19 0 -27 20 -13 33 13 14 33 6 33 -13z
m5195 -180 c-3 -5 -16 -15 -28 -21 -22 -12 -22 -12 -3 10 19 21 43 30 31 11z
m-5165 -15 c0 -8 -7 -15 -15 -15 -8 0 -15 7 -15 15 0 8 7 15 15 15 8 0 15 -7
15 -15z m40 -191 c0 -16 -26 -19 -34 -5 -4 5 -3 16 0 25 5 13 9 14 20 5 8 -6
14 -18 14 -25z m34 -140 c8 -22 8 -24 -8 -24 -15 0 -28 24 -19 34 11 10 21 7
27 -10z m3056 -48 c0 -3 -4 -8 -10 -11 -5 -3 -10 -1 -10 4 0 6 5 11 10 11 6 0
10 -2 10 -4z m-3025 -106 c3 -5 1 -10 -4 -10 -6 0 -11 5 -11 10 0 6 2 10 4 10
3 0 8 -4 11 -10z m575 -155 c10 -12 10 -15 -3 -15 -23 0 -47 11 -47 21 0 15
37 10 50 -6z m-2610 -10 c7 -8 8 -15 2 -15 -5 0 -15 7 -22 15 -7 8 -8 15 -2
15 5 0 15 -7 22 -15z m92 -62 c20 -24 -7 -12 -42 18 l-35 31 33 -19 c19 -10
38 -24 44 -30z m189 -139 c9 -11 2 -9 -18 6 -18 13 -33 25 -33 27 0 8 38 -17
51 -33z m5950 -28 c-12 -18 -21 -42 -21 -52 0 -17 -1 -17 -17 -1 -16 16 -15
19 17 52 42 44 47 44 21 1z m4746 -38 c-3 -8 -6 -5 -6 6 -1 11 2 17 5 13 3 -3
4 -12 1 -19z m-12299 -45 c2 -7 -4 -16 -12 -19 -19 -7 -49 14 -40 28 8 13 46
6 52 -9z m1773 -30 c13 -16 12 -17 -3 -4 -10 7 -18 15 -18 17 0 8 8 3 21 -13z
m8799 -21 c3 -3 -7 -3 -22 0 -27 5 -28 4 -22 -32 5 -30 1 -42 -20 -66 -20 -23
-25 -25 -21 -9 4 11 -8 -7 -26 -40 -31 -57 -37 -80 -40 -150 -1 -16 -7 -36
-13 -44 -9 -12 -7 -13 9 -7 14 5 10 -4 -16 -31 -49 -53 -114 -134 -128 -160
-14 -28 -3 -30 40 -7 17 8 33 13 36 11 2 -3 -26 -21 -63 -41 -37 -20 -69 -34
-71 -33 -1 2 33 71 77 153 43 82 112 222 152 311 69 157 73 162 97 156 15 -3
28 -8 31 -11z m47 -8 c-3 -3 -12 -4 -19 -1 -8 3 -5 6 6 6 11 1 17 -2 13 -5z
m-8602 -213 c-3 -2 -6 -2 -7 0 -2 2 -19 22 -38 44 l-35 40 42 -39 c24 -22 40
-42 38 -45z m-1512 -46 c1 -5 -6 -11 -15 -13 -11 -2 -18 3 -18 13 0 17 30 18
33 0z m12729 -43 c-27 -23 -42 -45 -42 -60 0 -19 -3 -21 -19 -11 -15 10 -32 3
-105 -45 -102 -66 -106 -57 -5 12 38 26 99 68 136 94 82 57 92 60 35 10z
m-8892 4 c0 -3 -4 -8 -10 -11 -5 -3 -10 -1 -10 4 0 6 5 11 10 11 6 0 10 -2 10
-4z m-2148 -108 c18 -23 28 -39 21 -35 -6 4 -26 26 -45 49 -18 23 -28 39 -21
35 6 -4 26 -26 45 -49z m6768 -218 c0 -11 -4 -20 -9 -20 -14 0 -23 18 -16 30
10 17 25 11 25 -10z m-4481 -202 c6 -18 7 -28 2 -23 -10 12 -25 55 -18 55 3 0
10 -15 16 -32z m670 -15 c0 -25 -1 -25 -8 -8 -5 11 -7 23 -4 28 8 14 13 7 12
-20z m-538 -266 c-1 -12 -15 -9 -19 4 -3 6 1 10 8 8 6 -3 11 -8 11 -12z m4704
3 c-3 -5 -10 -10 -16 -10 -5 0 -9 5 -9 10 0 6 7 10 16 10 8 0 12 -4 9 -10z
m-167 -61 c-2 -6 -8 -10 -13 -10 -5 0 -11 4 -13 10 -2 6 4 11 13 11 9 0 15 -5
13 -11z m-68 -49 c0 -5 -5 -10 -11 -10 -5 0 -7 5 -4 10 3 6 8 10 11 10 2 0 4
-4 4 -10z m-4226 -67 c-28 -65 -28 -69 6 -85 l31 -15 -37 -31 -37 -31 18 -28
c10 -16 27 -39 39 -53 11 -14 -7 4 -40 39 -54 58 -63 64 -78 52 -15 -13 -16
-11 -6 14 9 24 6 35 -29 91 -50 79 -45 85 6 8 l37 -56 17 38 c10 22 18 33 18
27 2 -24 17 -13 40 27 28 50 36 52 15 3z m1321 7 c3 -5 1 -10 -4 -10 -6 0 -11
5 -11 10 0 6 2 10 4 10 3 0 8 -4 11 -10z m-4385 -10 c0 -5 -7 -10 -16 -10 -8
0 -12 5 -9 10 3 6 10 10 16 10 5 0 9 -4 9 -10z m2580 0 c0 -5 -2 -10 -4 -10
-3 0 -8 5 -11 10 -3 6 -1 10 4 10 6 0 11 -4 11 -10z m-2324 -91 c4 -8 9 -8 13
-1 4 7 15 4 30 -8 l24 -18 -26 3 c-26 3 -81 35 -60 35 7 0 15 -5 19 -11z
m6626 -34 c5 -22 3 -24 -11 -13 -9 7 -18 13 -20 15 -5 3 10 23 18 23 5 0 11
-11 13 -25z m-4731 -12 c13 -16 12 -17 -3 -4 -10 7 -18 15 -18 17 0 8 8 3 21
-13z m2149 -33 c0 -5 -5 -10 -11 -10 -5 0 -7 5 -4 10 3 6 8 10 11 10 2 0 4 -4
4 -10z m-3789 -86 c8 -10 -12 0 -43 22 -32 21 -57 43 -58 47 0 10 82 -46 101
-69z m1830 -91 c206 -224 242 -261 236 -241 -5 14 2 16 31 9 1 -1 -2 -10 -8
-21 -9 -18 -3 -29 47 -83 l57 -62 -61 59 c-34 32 -66 55 -72 52 -7 -4 -11 1
-11 13 0 12 -76 104 -190 231 -105 115 -189 210 -186 210 2 0 73 -75 157 -167z
m-2186 146 c11 -17 -1 -21 -15 -4 -8 9 -8 15 -2 15 6 0 14 -5 17 -11z m11051
-26 c-10 -10 -19 5 -10 18 6 11 8 11 12 0 2 -7 1 -15 -2 -18z m-146 7 c0 -5
-4 -10 -10 -10 -5 0 -10 5 -10 10 0 6 5 10 10 10 6 0 10 -4 10 -10z m300 -6
c0 -8 -4 -12 -10 -9 -5 3 -10 10 -10 16 0 5 5 9 10 9 6 0 10 -7 10 -16z m-455
-14 c0 -7 -6 -15 -12 -17 -8 -3 -13 4 -13 17 0 13 5 20 13 18 6 -3 12 -11 12
-18z m-3015 -30 c-12 -22 -30 -18 -30 6 0 8 5 12 10 9 6 -3 13 2 17 11 4 10 8
13 10 7 3 -7 -1 -21 -7 -33z m920 27 c0 -2 -15 -16 -32 -33 l-33 -29 29 33
c28 30 36 37 36 29z m2865 -27 c3 -5 2 -10 -4 -10 -5 0 -13 5 -16 10 -3 6 -2
10 4 10 5 0 13 -4 16 -10z m-10923 -178 c120 -101 358 -322 448 -418 188 -199
200 -208 200 -161 1 17 2 19 9 7 16 -26 17 -65 3 -62 -14 3 20 -51 101 -158
l49 -65 -46 50 c-42 46 -46 48 -46 25 -1 -24 -1 -24 -15 -7 -7 11 -11 25 -9
32 6 15 -15 58 -46 94 -16 18 -23 21 -34 12 -18 -15 -40 11 -33 38 5 19 -22
59 -86 128 -28 30 -31 31 -52 17 -21 -14 -23 -13 -27 10 -4 17 -1 23 9 19 28
-11 10 18 -51 81 -45 46 -69 64 -80 60 -12 -4 -15 -2 -10 9 13 34 -309 285
-493 384 -46 25 -82 47 -80 49 5 5 102 -42 180 -87 l52 -30 -30 28 c-17 15
-55 50 -85 76 l-55 48 70 -52 c39 -29 109 -86 157 -127z m2383 148 c10 -11 16
-20 13 -20 -3 0 -13 9 -23 20 -10 11 -16 20 -13 20 3 0 13 -9 23 -20z m5504
-127 c-56 -65 -109 -129 -117 -143 -9 -14 -31 -43 -49 -66 -18 -23 -33 -46
-33 -51 0 -6 -9 -22 -21 -37 -39 -50 38 -19 138 54 l68 51 -55 -48 c-92 -80
-242 -229 -300 -297 -30 -36 -61 -65 -67 -65 -7 -1 -13 -10 -13 -22 0 -12 -8
-23 -18 -26 -11 -2 -66 -81 -131 -189 -62 -101 -115 -184 -118 -184 -3 0 5 17
17 38 12 20 36 62 53 92 l30 55 -32 -35 -32 -35 17 35 c20 43 44 71 54 65 4
-3 11 2 14 11 4 9 2 13 -6 8 -6 -4 1 15 15 42 25 48 40 94 31 94 -3 0 -18 -14
-34 -32 -16 -17 -32 -30 -35 -27 -2 3 3 14 13 25 33 35 54 73 47 84 -4 7 2 14
14 17 11 3 18 10 15 15 -4 6 4 4 17 -2 20 -11 25 -10 37 9 8 11 20 21 27 21 7
0 49 51 92 113 109 153 263 343 368 455 48 50 89 92 91 92 3 0 -41 -53 -97
-117z m3489 -11 c2 -7 -6 -12 -17 -12 -21 0 -27 11 -14 24 9 9 26 2 31 -12z
m-3224 -7 c3 -8 1 -15 -3 -15 -5 0 -11 7 -15 15 -3 8 -1 15 3 15 5 0 11 -7 15
-15z m-2254 -5 c0 -5 -7 -10 -15 -10 -8 0 -15 5 -15 10 0 6 7 10 15 10 8 0 15
-4 15 -10z m-4154 -32 l29 -33 -32 29 c-31 28 -38 36 -30 36 2 0 16 -15 33
-32z m44 -13 c24 -29 24 -29 2 -10 -13 11 -28 29 -34 40 -11 21 -8 18 32 -30z
m6149 -81 c-13 -14 -33 -30 -44 -36 -11 -5 -2 6 20 26 47 42 58 46 24 10z
m-3974 -24 c3 -5 2 -10 -4 -10 -5 0 -13 5 -16 10 -3 6 -2 10 4 10 5 0 13 -4
16 -10z m2695 -85 c35 -20 54 -19 46 3 -4 10 2 7 14 -8 24 -31 24 -32 0 -47
-15 -10 -18 -10 -14 0 3 9 -9 18 -34 25 -41 13 -77 42 -51 42 8 -1 25 -7 39
-15z m-4579 -196 c50 -55 89 -99 86 -99 -2 0 -51 51 -108 113 -57 61 -96 106
-86 98 9 -7 58 -58 108 -112z m-1491 66 c0 -8 -2 -15 -4 -15 -2 0 -6 7 -10 15
-3 8 -1 15 4 15 6 0 10 -7 10 -15z m3630 -30 c0 -8 -7 -15 -15 -15 -8 0 -15 7
-15 15 0 8 7 15 15 15 8 0 15 -7 15 -15z m2370 0 c0 -8 -4 -15 -10 -15 -5 0
-10 7 -10 15 0 8 5 15 10 15 6 0 10 -7 10 -15z m5390 -65 c0 -5 -7 -10 -16
-10 -8 0 -12 5 -9 10 3 6 10 10 16 10 5 0 9 -4 9 -10z m-13983 -26 c37 -10 40
-13 13 -9 -99 14 -317 17 -401 5 -50 -6 -92 -10 -95 -7 -3 2 35 11 83 20 103
18 324 13 400 -9z m2633 16 c0 -5 -2 -10 -4 -10 -3 0 -8 5 -11 10 -3 6 -1 10
4 10 6 0 11 -4 11 -10z m6380 -10 c0 -5 -5 -10 -11 -10 -5 0 -7 5 -4 10 3 6 8
10 11 10 2 0 4 -4 4 -10z m-5511 -47 c12 -24 18 -43 13 -43 -4 0 -14 17 -22
38 -8 20 -17 42 -19 47 -9 23 8 -3 28 -42z m5246 35 c11 1 30 4 43 7 12 3 22
1 22 -5 0 -5 -11 -10 -24 -10 -36 0 -40 -15 -8 -36 15 -10 29 -18 32 -17 3 1
6 -10 6 -23 2 -23 -1 -22 -32 15 -21 25 -54 48 -87 61 -50 20 -51 20 -12 14
22 -4 49 -6 60 -6z m-8596 -24 c29 -8 51 -18 48 -20 -5 -5 -107 25 -107 32 0
6 1 5 59 -12z m7231 -24 c0 -15 -38 -32 -45 -20 -3 5 -3 15 0 20 8 13 45 13
45 0z m1926 -12 c4 -5 2 -8 -4 -8 -6 0 -9 -7 -6 -15 4 -8 2 -15 -4 -15 -5 0
-13 7 -16 16 -4 11 -13 14 -27 11 -15 -4 -18 -2 -10 7 11 13 55 16 67 4z
m-5041 -75 c61 -69 63 -72 16 -28 -48 46 -98 105 -88 105 2 0 34 -35 72 -77z
m-3885 37 c8 -5 11 -10 5 -10 -5 0 -17 5 -25 10 -8 5 -10 10 -5 10 6 0 17 -5
25 -10z m2920 -15 c-7 -8 -17 -15 -22 -15 -6 0 -5 7 2 15 7 8 17 15 22 15 6 0
5 -7 -2 -15z m-92 -29 l27 6 -23 -17 c-13 -9 -21 -23 -18 -30 2 -7 0 -17 -5
-22 -5 -5 -19 -32 -30 -59 l-20 -49 5 45 c3 25 7 56 11 70 4 19 3 21 -3 6 -8
-18 -9 -18 -15 -3 -4 11 -18 17 -39 18 -35 1 -32 3 15 14 28 6 28 6 13 30
l-16 25 35 -20 c24 -13 45 -18 63 -14z m6497 -7 c7 -7 0 -8 -20 -3 -16 3 -34
11 -40 17 -7 6 0 7 20 3 17 -4 35 -12 40 -17z m4945 7 c0 -3 -4 -8 -10 -11 -5
-3 -10 -1 -10 4 0 6 5 11 10 11 6 0 10 -2 10 -4z m-5339 -49 c-10 -9 -11 -8
-5 6 3 10 9 15 12 12 3 -3 0 -11 -7 -18z m-4946 -47 c10 -11 16 -20 13 -20 -3
0 -13 9 -23 20 -10 11 -16 20 -13 20 3 0 13 -9 23 -20z m4524 -74 c1 -42 -5
-29 -12 24 -4 30 -3 38 3 25 5 -11 9 -33 9 -49z m301 50 c0 -3 -4 -8 -10 -11
-5 -3 -10 -1 -10 4 0 6 5 11 10 11 6 0 10 -2 10 -4z m-6535 -16 c-3 -5 -14
-10 -23 -9 -14 0 -13 2 3 9 27 11 27 11 20 0z m433 -20 c-15 -23 -24 -25 -34
-8 -4 6 -3 8 3 5 6 -4 16 0 23 8 18 21 22 18 8 -5z m71 -85 c0 -5 -4 -3 -9 5
-5 8 -9 22 -9 30 0 16 17 -16 18 -35z m-2314 5 c10 -11 16 -20 13 -20 -3 0
-13 9 -23 20 -10 11 -16 20 -13 20 3 0 13 -9 23 -20z m8052 -2 c-3 -8 -6 -5
-6 6 -1 11 2 17 5 13 3 -3 4 -12 1 -19z m-6066 -5 c13 -16 12 -17 -3 -4 -17
13 -22 21 -14 21 2 0 10 -8 17 -17z m-2101 -23 c0 -5 -2 -10 -4 -10 -3 0 -8 5
-11 10 -3 6 -1 10 4 10 6 0 11 -4 11 -10z m170 -15 c13 -14 21 -25 18 -25 -2
0 -15 11 -28 25 -13 14 -21 25 -18 25 2 0 15 -11 28 -25z m2276 -12 c-4 -4
-11 -1 -16 7 -16 25 -11 35 7 17 9 -9 13 -20 9 -24z m5721 0 c-3 -10 -5 -4 -5
12 0 17 2 24 5 18 2 -7 2 -21 0 -30z m-6036 10 c13 -16 12 -17 -3 -4 -17 13
-22 21 -14 21 2 0 10 -8 17 -17z m-1772 -176 c116 -126 174 -198 238 -297 69
-106 173 -285 173 -298 0 -5 7 -15 15 -22 17 -14 20 -30 6 -30 -5 0 -13 9 -16
21 -4 13 -12 18 -22 15 -11 -5 -13 -2 -9 10 7 19 -80 184 -120 227 -14 15 -33
27 -44 27 -25 0 -33 15 -21 39 13 24 -20 77 -66 106 -18 11 -32 24 -33 28 0 5
5 5 10 2 46 -28 -63 109 -194 245 -58 60 -65 69 -22 30 32 -29 79 -76 105
-103z m1877 102 l23 26 -9 -39 c-8 -34 -5 -43 18 -74 23 -30 59 -54 87 -56 5
-1 14 -10 20 -22 5 -11 15 -19 20 -17 6 1 15 -8 21 -22 11 -23 11 -24 -10 -13
-20 11 -20 10 -3 -9 9 -11 17 -29 17 -39 0 -33 217 -288 372 -439 156 -152
325 -291 486 -400 56 -38 102 -70 102 -72 0 -5 -7 -1 -110 66 -235 152 -518
409 -741 671 -114 134 -259 313 -291 359 -9 13 -21 20 -27 16 -7 -4 -11 3 -11
19 0 14 -4 28 -10 31 -5 3 -15 16 -20 28 -7 15 -2 12 16 -9 l27 -31 23 26z
m5921 -36 c-3 -10 -5 -4 -5 12 0 17 2 24 5 18 2 -7 2 -21 0 -30z m-5687 11 c0
-8 -5 -12 -10 -9 -6 4 -8 11 -5 16 9 14 15 11 15 -7z m5940 -44 c-6 -11 -13
-20 -16 -20 -2 0 0 9 6 20 6 11 13 20 16 20 2 0 0 -9 -6 -20z m-5846 -145 l18
-30 -21 25 c-27 33 -81 134 -81 151 1 8 15 -15 33 -51 18 -36 40 -78 51 -95z
m-2409 105 c3 -5 1 -10 -4 -10 -6 0 -11 5 -11 10 0 6 2 10 4 10 3 0 8 -4 11
-10z m7955 -141 c-16 -52 -35 -101 -41 -109 -9 -12 -9 -11 -3 5 4 11 21 66 38
122 17 56 32 96 34 89 2 -7 -11 -55 -28 -107z m-4065 71 c21 -22 37 -40 34
-40 -3 0 -23 18 -44 40 -21 22 -37 40 -34 40 3 0 23 -18 44 -40z m3765 21 c0
-23 -16 -36 -25 -21 -9 14 1 40 15 40 5 0 10 -9 10 -19z m4230 -11 c0 -5 -5
-10 -11 -10 -5 0 -7 5 -4 10 3 6 8 10 11 10 2 0 4 -4 4 -10z m-11645 -70 c3
-5 1 -10 -4 -10 -6 0 -11 5 -11 10 0 6 2 10 4 10 3 0 8 -4 11 -10z m7905 -10
c-6 -11 -13 -20 -16 -20 -2 0 0 9 6 20 6 11 13 20 16 20 2 0 0 -9 -6 -20z
m-6040 -84 c0 -3 -4 -8 -10 -11 -5 -3 -10 -1 -10 4 0 6 5 11 10 11 6 0 10 -2
10 -4z m5785 -96 c-30 -84 -242 -491 -272 -520 -8 -8 -4 3 10 26 37 60 127
241 130 262 1 10 12 30 23 44 11 14 42 73 69 131 28 58 51 104 53 103 1 -2 -5
-22 -13 -46z m-7495 -20 c0 -5 -4 -10 -9 -10 -6 0 -13 5 -16 10 -3 6 1 10 9
10 9 0 16 -4 16 -10z m-50 -20 c-8 -6 -22 -10 -30 -9 -9 0 -5 6 10 14 27 14
44 10 20 -5z m10043 -295 c132 -280 157 -335 152 -335 -3 0 -16 21 -29 48 -14
26 -25 41 -26 35 0 -19 -68 -77 -103 -89 -25 -9 -32 -17 -32 -38 1 -14 -1 -26
-3 -26 -1 0 -32 61 -67 135 -35 74 -66 135 -69 135 -2 0 -91 -170 -196 -377
-106 -208 -196 -382 -202 -388 -5 -5 9 29 32 76 22 47 38 92 35 100 -3 8 -17
22 -30 32 l-25 18 -44 -88 c-25 -48 -45 -85 -45 -81 -1 4 118 249 264 544 172
348 269 534 275 528 5 -5 56 -109 113 -229z m-10328 185 c3 -5 1 -10 -4 -10
-6 0 -11 5 -11 10 0 6 2 10 4 10 3 0 8 -4 11 -10z m1775 -26 c0 -2 -9 0 -20 6
-11 6 -20 13 -20 16 0 2 9 0 20 -6 11 -6 20 -13 20 -16z m-770 -4 c0 -11 -4
-20 -10 -20 -5 0 -10 9 -10 20 0 11 5 20 10 20 6 0 10 -9 10 -20z m820 -30 c0
-5 -2 -10 -4 -10 -3 0 -8 5 -11 10 -3 6 -1 10 4 10 6 0 11 -4 11 -10z m2518
-28 c2 -7 -2 -10 -12 -6 -9 3 -16 11 -16 16 0 13 23 5 28 -10z m7437 8 c3 -5
1 -10 -4 -10 -6 0 -11 5 -11 10 0 6 2 10 4 10 3 0 8 -4 11 -10z m837 -12 c-7
-7 -12 -8 -12 -2 0 14 12 26 19 19 2 -3 -1 -11 -7 -17z m-4802 8 c0 -2 -8 -10
-17 -17 -16 -13 -17 -12 -4 4 13 16 21 21 21 13z m-5740 -15 c0 -5 -9 -7 -20
-4 -11 3 -20 7 -20 9 0 2 9 4 20 4 11 0 20 -4 20 -9z m5710 -25 c0 -2 -8 -10
-17 -17 -16 -13 -17 -12 -4 4 13 16 21 21 21 13z m-7171 -101 c0 -5 -6 -1 -14
9 -8 11 -15 24 -15 30 0 5 7 1 15 -10 8 -10 14 -23 14 -29z m4776 27 c0 -18
-20 -15 -23 4 -3 10 1 15 10 12 7 -3 13 -10 13 -16z m-3245 -72 c0 -5 -4 -10
-10 -10 -5 0 -10 5 -10 10 0 6 5 10 10 10 6 0 10 -4 10 -10z m5429 -120 c-345
-422 -594 -666 -986 -962 -73 -55 -133 -101 -133 -103 0 -2 28 3 62 11 98 23
92 10 -7 -17 l-90 -23 -192 -186 c-321 -309 -591 -551 -653 -585 -23 -12 0 9
104 96 163 135 421 377 522 489 32 36 52 59 44 53 -17 -15 -34 -17 -25 -3 3 6
3 10 -1 10 -15 0 -122 -72 -163 -110 -24 -22 -46 -40 -48 -40 -3 0 5 16 17 35
12 19 17 35 11 35 -7 0 -43 -16 -82 -36 -39 -19 -73 -34 -75 -32 -1 2 52 32
119 67 67 35 142 76 167 91 25 14 88 52 140 83 136 81 403 293 563 446 37 35
67 60 67 55 0 -5 -37 -46 -82 -89 -82 -79 -64 -71 64 31 137 110 493 484 603
633 28 39 126 151 132 151 2 0 -33 -45 -78 -100z m-5335 -49 c-4 -5 -19 13
-55 64 -12 17 -3 10 19 -15 22 -25 38 -47 36 -49z m-1495 -76 c0 -5 -6 -1 -14
9 -8 11 -15 27 -15 35 1 17 29 -26 29 -44z m3586 15 c3 -5 2 -10 -4 -10 -5 0
-13 5 -16 10 -3 6 -2 10 4 10 5 0 13 -4 16 -10z m-1725 -40 c0 -5 -2 -10 -4
-10 -3 0 -8 5 -11 10 -3 6 -1 10 4 10 6 0 11 -4 11 -10z m955 -248 c66 -27
140 -56 165 -62 25 -7 59 -18 75 -25 17 -7 73 -25 127 -39 53 -14 148 -44 210
-66 63 -21 124 -37 135 -34 12 3 24 1 27 -5 5 -7 0 -9 -11 -5 -10 3 63 -35
162 -84 99 -50 189 -97 200 -105 11 -9 -57 22 -150 68 -171 84 -309 135 -672
246 -93 28 -208 69 -258 91 -128 56 -326 154 -350 173 -11 9 34 -11 100 -43
66 -33 174 -82 240 -110z m-1150 138 c3 -5 2 -10 -4 -10 -5 0 -13 5 -16 10 -3
6 -2 10 4 10 5 0 13 -4 16 -10z m2124 -13 c6 -8 8 -17 4 -20 -7 -8 -33 11 -33
24 0 13 16 11 29 -4z m-3689 -78 c0 -6 -4 -7 -10 -4 -5 3 -10 11 -10 16 0 6 5
7 10 4 6 -3 10 -11 10 -16z m3825 -5 c17 -14 21 -21 10 -15 -30 14 -61 40 -50
41 6 0 24 -12 40 -26z m-3615 12 c0 -11 -19 -15 -25 -6 -3 5 1 10 9 10 9 0 16
-2 16 -4z m-162 -111 c-3 -3 -9 2 -12 12 -6 14 -5 15 5 6 7 -7 10 -15 7 -18z
m2952 -5 c-20 -13 -43 -13 -35 0 3 6 16 10 28 10 18 0 19 -2 7 -10z m-2936
-26 c3 -8 2 -12 -4 -9 -6 3 -10 10 -10 16 0 14 7 11 14 -7z m1726 -14 c0 -5
-2 -10 -4 -10 -3 0 -8 5 -11 10 -3 6 -1 10 4 10 6 0 11 -4 11 -10z m-1700 -45
c0 -5 -5 -3 -10 5 -5 8 -10 20 -10 25 0 6 5 3 10 -5 5 -8 10 -19 10 -25z
m4070 -1 c0 -2 -9 0 -20 6 -11 6 -20 13 -20 16 0 2 9 0 20 -6 11 -6 20 -13 20
-16z m-5469 -21 c13 -16 12 -17 -3 -4 -10 7 -18 15 -18 17 0 8 8 3 21 -13z
m80 -60 c13 -16 12 -17 -3 -4 -10 7 -18 15 -18 17 0 8 8 3 21 -13z m1458 -4
c-8 -5 -23 -9 -34 -9 -17 0 -17 2 5 14 27 14 52 10 29 -5z m5141 -4 c0 -3 -10
-10 -22 -15 -13 -5 -34 -17 -47 -27 -22 -16 -23 -16 -20 1 4 19 89 58 89 41z
m-6559 -22 c13 -16 12 -17 -3 -4 -10 7 -18 15 -18 17 0 8 8 3 21 -13z m7839
-38 c-13 -14 -30 -25 -37 -25 -11 0 -10 5 3 25 9 14 26 25 37 25 20 0 20 -1
-3 -25z m-60 -39 c0 -2 -7 -7 -16 -10 -8 -3 -12 -2 -9 4 6 10 25 14 25 6z
m-2675 -161 c19 -15 18 -15 -12 -1 -17 9 -35 21 -39 27 -8 13 21 -1 51 -26z
m-3110 -35 c3 -5 1 -10 -4 -10 -6 0 -11 5 -11 10 0 6 2 10 4 10 3 0 8 -4 11
-10z m-1500 -160 c3 -5 1 -10 -4 -10 -6 0 -11 5 -11 10 0 6 2 10 4 10 3 0 8
-4 11 -10z m1405 -260 c-41 -4 -147 -10 -235 -13 -88 -3 -197 -12 -241 -20
-121 -23 -384 -91 -508 -131 -111 -37 -123 -40 -114 -30 20 19 318 109 513
154 66 16 109 29 95 30 -23 2 -23 3 5 9 17 3 149 7 295 8 171 1 238 -2 190 -7z
m200 -9 c42 -8 42 -9 10 -9 -19 0 -55 3 -80 7 -42 8 -42 9 -10 9 19 0 55 -3
80 -7z m-1104 -49 c-4 -3 -14 2 -24 12 -16 18 -16 18 6 6 13 -6 21 -14 18 -18z
m1369 -3 c13 -6 5 -6 -20 -3 -22 4 -47 10 -55 15 -18 10 46 0 75 -12z m3755
-9 c-8 -5 -19 -10 -25 -10 -5 0 -3 5 5 10 8 5 20 10 25 10 6 0 3 -5 -5 -10z
m-3703 -6 c-3 -3 -12 -4 -19 -1 -8 3 -5 6 6 6 11 1 17 -2 13 -5z m-87 -14 c0
-5 -2 -10 -4 -10 -3 0 -8 5 -11 10 -3 6 -1 10 4 10 6 0 11 -4 11 -10z m6793
-143 c8 -23 22 -59 31 -79 18 -42 6 -53 -12 -13 -9 20 -19 25 -47 25 -28 0
-38 -5 -47 -25 -6 -14 -15 -25 -19 -25 -6 0 42 137 57 162 9 14 22 0 37 -45z
m1228 24 c46 -47 38 -110 -19 -140 -28 -15 -77 1 -92 30 -19 34 -12 88 15 114
32 33 60 31 96 -4z m210 3 c13 -16 -2 -19 -18 -3 -18 18 -58 7 -61 -17 -2 -17
6 -24 42 -38 52 -20 62 -37 37 -67 -27 -33 -101 -23 -101 14 0 5 8 3 18 -6 20
-18 49 -22 70 -8 24 15 8 42 -32 56 -21 8 -43 20 -47 27 -31 47 55 86 92 42z
m-9781 -3 c-8 -5 -26 -11 -40 -15 -21 -5 -20 -3 5 9 32 15 60 20 35 6z m8690
-6 c0 -8 6 -15 13 -16 10 0 10 -2 0 -6 -8 -3 -13 -24 -13 -53 0 -38 4 -50 18
-54 10 -3 6 -4 -8 -3 -23 2 -25 7 -28 52 -2 27 -9 53 -15 57 -9 6 -9 8 1 8 6
0 12 7 12 15 0 8 5 15 10 15 6 0 10 -7 10 -15z m-118 -39 c28 -41 -22 -117
-62 -96 -27 14 -28 13 -33 -22 -2 -18 -5 7 -5 55 -1 56 2 86 8 82 5 -3 18 -2
27 4 18 10 51 -2 65 -23z m658 -43 l5 -49 -41 -2 c-50 -2 -71 16 -55 47 7 12
24 21 44 23 34 3 40 16 13 33 -11 7 -22 6 -36 -3 -12 -7 -20 -8 -20 -2 0 6 10
15 23 19 37 15 61 -9 67 -66z m-387 -41 c30 -6 47 17 47 64 0 24 5 44 10 44 6
0 10 -24 9 -58 l-2 -58 -43 -2 c-50 -2 -64 14 -64 71 0 56 15 53 20 -4 4 -42
9 -55 23 -57z m198 91 c-16 -11 -21 -25 -21 -59 0 -25 -5 -44 -11 -44 -6 0
-10 20 -8 53 3 64 1 62 34 63 26 2 26 2 6 -13z m3489 -198 c-38 -39 -70 -46
-70 -15 0 21 34 45 50 35 5 -3 18 -1 27 4 30 17 28 13 -7 -24z m-9885 -127 c6
-6 2 -6 -10 -2 -24 9 -95 55 -95 61 0 6 90 -45 105 -59z m2465 39 c0 -5 -93
-73 -125 -92 -37 -21 -18 -5 65 55 53 39 60 43 60 37z m-2525 -37 c3 -6 -1 -7
-9 -4 -18 7 -21 14 -7 14 6 0 13 -4 16 -10z m-195 -26 c0 -2 -7 -4 -15 -4 -8
0 -15 4 -15 10 0 5 7 7 15 4 8 -4 15 -8 15 -10z m50 6 c0 -5 -2 -10 -4 -10 -3
0 -8 5 -11 10 -3 6 -1 10 4 10 6 0 11 -4 11 -10z m320 -30 c0 5 5 10 11 10 6
0 9 -6 6 -14 -3 -8 0 -19 6 -24 13 -10 221 -117 272 -140 49 -22 218 -90 243
-97 13 -4 21 -9 18 -12 -20 -21 -371 138 -573 259 -93 55 -109 71 -33 33 28
-14 50 -21 50 -15z m4100 20 c0 -5 -5 -10 -11 -10 -5 0 -7 5 -4 10 3 6 8 10
11 10 2 0 4 -4 4 -10z m-4516 -16 c5 -14 4 -15 -9 -4 -17 14 -19 20 -6 20 5 0
12 -7 15 -16z m5223 0 c-3 -3 -12 -4 -19 -1 -8 3 -5 6 6 6 11 1 17 -2 13 -5z
m-5351 -44 c-1 -25 -3 -27 -15 -16 -11 12 -11 17 0 30 8 8 14 15 15 16 1 0 1
-13 0 -30z m2729 10 c-3 -5 -16 -15 -28 -21 -19 -9 -19 -8 3 10 28 23 34 26
25 11z m2765 -4 c25 -8 39 -15 32 -15 -8 -1 -10 -6 -6 -13 4 -7 -2 -5 -13 5
-11 9 -26 17 -34 17 -8 0 -21 5 -29 10 -21 14 -2 12 50 -4z m100 -31 c19 -7
28 -14 20 -14 -8 0 -28 6 -45 14 -39 17 -21 18 25 0z m-2940 -15 c-36 -28
-210 -123 -215 -118 -3 2 30 23 73 46 42 23 95 53 117 66 48 30 60 33 25 6z
m547 -42 c-3 -8 -6 -5 -6 6 -1 11 2 17 5 13 3 -3 4 -12 1 -19z m2439 6 c18
-14 18 -14 -6 -3 -31 14 -36 19 -24 19 6 0 19 -7 30 -16z m-1302 -164 c25 -51
30 -67 16 -50 -22 26 -60 104 -60 122 0 17 4 10 44 -72z m-1984 50 c-8 -5 -19
-10 -25 -10 -5 0 -3 5 5 10 8 5 20 10 25 10 6 0 3 -5 -5 -10z m6400 -15 c0 -2
-33 -27 -72 -54 -40 -27 -90 -62 -110 -77 -20 -16 -62 -46 -93 -68 -31 -21
-54 -40 -52 -43 8 -8 302 26 349 41 25 7 51 10 58 6 18 -11 -103 -37 -279 -60
-188 -24 -219 -32 -298 -77 -75 -42 -83 -38 -13 7 28 18 50 34 50 36 0 6 -105
-7 -165 -21 -172 -41 -373 -67 -550 -70 l-180 -3 170 8 c228 11 423 42 626
101 37 11 74 17 82 13 21 -8 91 13 119 36 20 16 14 15 -40 -6 -35 -14 -69 -23
-75 -21 -7 2 13 12 43 21 84 27 224 100 330 172 97 66 100 67 100 59z m-5870
-19 c0 -17 -14 -29 -23 -20 -8 8 3 34 14 34 5 0 9 -6 9 -14z m-1706 -31 c27
-8 62 -15 78 -15 15 0 28 -5 28 -11 0 -12 -36 -6 -120 21 -67 22 -55 26 14 5z
m943 -11 c-3 -3 -12 -4 -19 -1 -8 3 -5 6 6 6 11 1 17 -2 13 -5z m-37 -8 c0 -2
-9 -6 -20 -9 -11 -3 -18 -1 -14 4 5 9 34 13 34 5z m-60 -16 c-8 -5 -19 -10
-25 -10 -5 0 -3 5 5 10 8 5 20 10 25 10 6 0 3 -5 -5 -10z m-677 -7 c-7 -2 -21
-2 -30 0 -10 3 -4 5 12 5 17 0 24 -2 18 -5z m44 -9 c-3 -3 -12 -4 -19 -1 -8 3
-5 6 6 6 11 1 17 -2 13 -5z m118 -15 c13 -6 0 -7 -40 -3 -33 4 -62 8 -64 10
-9 8 85 2 104 -7z m388 4 c-7 -2 -21 -2 -30 0 -10 3 -4 5 12 5 17 0 24 -2 18
-5z m-320 -10 c-7 -2 -21 -2 -30 0 -10 3 -4 5 12 5 17 0 24 -2 18 -5z m100 0
c-13 -2 -33 -2 -45 0 -13 2 -3 4 22 4 25 0 35 -2 23 -4z m70 0 c-7 -2 -21 -2
-30 0 -10 3 -4 5 12 5 17 0 24 -2 18 -5z m60 0 c-7 -2 -21 -2 -30 0 -10 3 -4
5 12 5 17 0 24 -2 18 -5z m7217 -28 c0 -8 -7 -15 -15 -15 -8 0 -15 7 -15 15 0
8 7 15 15 15 8 0 15 -7 15 -15z m-123 -41 c-3 -3 -12 -4 -19 -1 -8 3 -5 6 6 6
11 1 17 -2 13 -5z m-4325 -178 c7 -13 7 -16 -1 -11 -7 4 -18 1 -26 -5 -12 -10
-15 -6 -20 17 -4 15 -11 39 -17 53 -9 24 -9 24 22 -5 17 -16 36 -38 42 -49z
m2375 48 c-3 -3 -12 -4 -19 -1 -8 3 -5 6 6 6 11 1 17 -2 13 -5z m50 -10 c-3
-3 -12 -4 -19 -1 -8 3 -5 6 6 6 11 1 17 -2 13 -5z m56 -11 c-7 -2 -19 -2 -25
0 -7 3 -2 5 12 5 14 0 19 -2 13 -5z m50 -10 c-7 -2 -19 -2 -25 0 -7 3 -2 5 12
5 14 0 19 -2 13 -5z m80 -10 c-7 -2 -21 -2 -30 0 -10 3 -4 5 12 5 17 0 24 -2
18 -5z m-2684 -57 c-9 -8 -10 -7 -5 7 3 10 7 24 7 30 1 7 3 4 6 -7 3 -10 -1
-23 -8 -30z m1881 10 c0 -3 -4 -8 -10 -11 -5 -3 -10 -1 -10 4 0 6 5 11 10 11
6 0 10 -2 10 -4z m1265 -66 c-3 -5 -12 -10 -18 -10 -7 0 -6 4 3 10 19 12 23
12 15 0z m-43 -22 c-7 -7 -12 -8 -12 -2 0 14 12 26 19 19 2 -3 -1 -11 -7 -17z"/>
<path d="M11458 1876 c-19 -38 -15 -46 19 -46 26 0 30 21 10 58 -13 23 -13 23
-29 -12z"/>
<path d="M12636 1898 c-34 -48 -8 -118 44 -118 54 0 83 56 56 109 -14 25 -23
31 -51 31 -24 0 -39 -7 -49 -22z"/>
<path d="M11650 1861 c-21 -41 -5 -81 32 -81 24 0 50 42 41 66 -14 38 -56 46
-73 15z"/>
<path d="M12321 1821 c-19 -12 -6 -41 18 -41 21 0 45 32 34 44 -9 9 -36 7 -52
-3z"/>
</g>
</svg>
