<svg xmlns="http://www.w3.org/2000/svg" width="3840" height="2160" viewBox="0 0 3840 2160" role="img" aria-label="Aptura OS retro workbench wallpaper">
  <defs>
    <linearGradient id="screen" x1="0" y1="0" x2="1" y2="1">
      <stop offset="0" stop-color="#1b1e26"/>
      <stop offset="0.52" stop-color="#30343b"/>
      <stop offset="1" stop-color="#141820"/>
    </linearGradient>
    <pattern id="dither" width="32" height="32" patternUnits="userSpaceOnUse">
      <rect width="32" height="32" fill="#242830"/>
      <rect width="16" height="16" fill="#2f333b"/>
      <rect x="16" y="16" width="16" height="16" fill="#2f333b"/>
    </pattern>
    <pattern id="grid" width="120" height="120" patternUnits="userSpaceOnUse">
      <path d="M120 0H0V120" fill="none" stroke="#00a6a6" stroke-opacity="0.26" stroke-width="4"/>
    </pattern>
    <filter id="hard-shadow" x="-20%" y="-20%" width="140%" height="140%">
      <feDropShadow dx="28" dy="28" stdDeviation="0" flood-color="#05070a" flood-opacity="0.72"/>
    </filter>
  </defs>

  <rect width="3840" height="2160" fill="url(#screen)"/>
  <rect width="3840" height="2160" fill="url(#dither)" opacity="0.34"/>
  <rect y="1320" width="3840" height="840" fill="#171b22"/>
  <g opacity="0.82">
    <rect y="1320" width="3840" height="840" fill="url(#grid)"/>
    <path d="M0 1320H3840" stroke="#f2b84b" stroke-width="8"/>
    <path d="M420 2160L1600 1320M3420 2160L2240 1320M1110 2160L1780 1320M2730 2160L2060 1320" stroke="#00a6a6" stroke-opacity="0.22" stroke-width="6"/>
  </g>

  <g filter="url(#hard-shadow)">
    <rect x="760" y="360" width="1180" height="760" fill="#c8c6bc" stroke="#05070a" stroke-width="10"/>
    <rect x="760" y="360" width="1180" height="82" fill="#21454f" stroke="#05070a" stroke-width="10"/>
    <path d="M782 382H1918" stroke="#67d7cf" stroke-width="4"/>
    <path d="M782 438H1918" stroke="#0d2027" stroke-width="4"/>
    <g fill="#c8c6bc" stroke="#05070a" stroke-width="6">
      <rect x="1778" y="382" width="34" height="34"/>
      <rect x="1826" y="382" width="34" height="34"/>
      <rect x="1874" y="382" width="34" height="34"/>
    </g>
    <rect x="820" y="502" width="1060" height="548" fill="#f4f0df" stroke="#686a72" stroke-width="8"/>
    <path d="M860 552H1540M860 632H1700M860 712H1480M860 792H1760" stroke="#30343b" stroke-width="18" stroke-linecap="square"/>
    <rect x="860" y="890" width="390" height="76" fill="#00a6a6" stroke="#05070a" stroke-width="6"/>
    <rect x="1300" y="890" width="300" height="76" fill="#f2b84b" stroke="#05070a" stroke-width="6"/>
  </g>

  <g filter="url(#hard-shadow)">
    <rect x="1850" y="610" width="1100" height="680" fill="#30343b" stroke="#05070a" stroke-width="10"/>
    <rect x="1850" y="610" width="1100" height="82" fill="#4f535d" stroke="#05070a" stroke-width="10"/>
    <path d="M1874 632H2926" stroke="#d9d6c8" stroke-width="4"/>
    <path d="M1874 688H2926" stroke="#171b22" stroke-width="4"/>
    <g fill="#c8c6bc" stroke="#05070a" stroke-width="6">
      <rect x="2788" y="632" width="34" height="34"/>
      <rect x="2836" y="632" width="34" height="34"/>
      <rect x="2884" y="632" width="34" height="34"/>
    </g>
    <rect x="1916" y="756" width="970" height="450" fill="#171b22" stroke="#05070a" stroke-width="8"/>
    <path d="M1986 1150L2250 860L2440 1042L2570 918L2820 1150Z" fill="#00a6a6"/>
    <circle cx="2690" cy="852" r="58" fill="#f2b84b"/>
    <path d="M1978 802H2814M1978 1210H2814" stroke="#d44fb0" stroke-width="10"/>
  </g>

  <g filter="url(#hard-shadow)">
    <rect x="1210" y="1170" width="1320" height="430" fill="#c8c6bc" stroke="#05070a" stroke-width="10"/>
    <rect x="1210" y="1170" width="1320" height="70" fill="#21454f" stroke="#05070a" stroke-width="10"/>
    <text x="1278" y="1220" fill="#f7f2df" font-family="Cantarell, Inter, sans-serif" font-size="34" font-weight="700">APTURA RETRO WORKBENCH</text>
    <rect x="1284" y="1306" width="420" height="190" fill="#f4f0df" stroke="#05070a" stroke-width="6"/>
    <rect x="1740" y="1306" width="720" height="46" fill="#30343b"/>
    <rect x="1740" y="1386" width="520" height="46" fill="#30343b"/>
    <rect x="1740" y="1466" width="640" height="46" fill="#00a6a6"/>
    <path d="M1370 1456L1494 1340L1618 1456L1494 1540Z" fill="none" stroke="#30343b" stroke-width="16"/>
    <path d="M1430 1456L1494 1398L1558 1456L1494 1514Z" fill="#d44fb0"/>
  </g>

  <text x="1920" y="1854" text-anchor="middle" fill="#f7f2df" font-family="Cantarell, Inter, sans-serif" font-size="86" font-weight="700" letter-spacing="8">APTURA OS</text>
  <text x="1920" y="1932" text-anchor="middle" fill="#f2b84b" font-family="Adwaita Mono, monospace" font-size="34">classic frames, modern base</text>
</svg>
