<?xml version="1.0" standalone="no"?>
<!DOCTYPE svg PUBLIC "-//W3C//DTD SVG 20010904//EN"
 "http://www.w3.org/TR/2001/REC-SVG-20010904/DTD/svg10.dtd">
<svg version="1.0" xmlns="http://www.w3.org/2000/svg"
 width="1672.000000pt" height="941.000000pt" viewBox="0 0 1672.000000 941.000000"
 preserveAspectRatio="xMidYMid meet">

<g transform="translate(0.000000,941.000000) scale(0.100000,-0.100000)"
fill="#000000" stroke="none">
<path d="M0 4705 l0 -4705 8360 0 8360 0 0 4705 0 4705 -8360 0 -8360 0 0
-4705z m12624 1808 c97 -204 134 -291 86 -203 -11 19 -19 29 -20 22 0 -7 -4
-11 -9 -8 -7 5 -37 -14 -78 -49 -6 -5 -30 -21 -52 -34 l-39 -24 25 -56 c51
-115 32 -80 -60 104 l-94 190 -117 -235 c-166 -330 -327 -643 -338 -655 -14
-15 5 30 56 133 25 50 46 96 46 100 0 4 -9 9 -20 10 -46 4 -51 6 -46 19 3 7 3
13 1 13 -3 0 -36 -63 -75 -140 -39 -77 -72 -140 -75 -140 -4 0 112 238 471
969 l169 344 31 -69 c17 -38 79 -169 138 -291z m1756 286 c0 -5 -4 -9 -10 -9
-5 0 -10 7 -10 16 0 8 5 12 10 9 6 -3 10 -10 10 -16z m-4450 -449 c0 -5 -4
-10 -10 -10 -5 0 -10 5 -10 10 0 6 5 10 10 10 6 0 10 -4 10 -10z m2470 -574
c0 -5 -69 -46 -78 -46 -6 1 69 50 76 50 1 0 2 -2 2 -4z m-599 -249 c-10 -9
-11 -8 -5 6 3 10 9 15 12 12 3 -3 0 -11 -7 -18z m-922 -989 c18 -46 35 -89 38
-95 3 -7 1 -13 -5 -13 -6 0 -15 14 -21 30 -9 27 -14 30 -50 30 -35 0 -43 -4
-56 -31 -29 -55 -26 -24 5 61 34 92 38 100 49 100 4 0 23 -37 40 -82z m1346
57 c19 -18 25 -35 25 -70 0 -85 -75 -124 -137 -71 -23 20 -28 32 -28 69 0 87
83 130 140 72z m225 10 c18 -22 5 -31 -15 -11 -20 20 -35 20 -61 2 -25 -19
-10 -45 34 -60 17 -6 39 -19 49 -29 16 -16 16 -20 3 -45 -25 -44 -121 -40
-120 6 1 16 2 16 14 -1 16 -20 71 -26 87 -10 22 22 4 48 -39 62 -55 17 -74 51
-47 81 22 24 77 27 95 5z m366 -92 c-2 -2 -12 16 -21 41 -10 25 -21 43 -26 40
-11 -6 -12 10 -1 20 4 4 17 -16 30 -44 12 -29 21 -55 18 -57z m231 -30 c-2
-27 -3 -5 -3 47 0 52 1 74 3 48 2 -27 2 -69 0 -95z m-1774 84 l22 -4 -22 -8
c-20 -6 -23 -14 -23 -55 0 -41 3 -49 23 -55 19 -6 20 -8 4 -12 -30 -8 -47 16
-47 67 0 29 -5 50 -12 53 -9 4 -10 8 -2 14 6 4 14 17 19 28 8 19 9 19 12 -2 3
-13 13 -24 26 -26z m1478 -14 c-12 -20 -14 -14 -5 12 4 9 9 14 11 11 3 -2 0
-13 -6 -23z m-1639 0 c25 -22 24 -84 -2 -108 -14 -12 -28 -16 -50 -12 -28 6
-30 5 -30 -23 0 -17 -4 -30 -10 -30 -6 0 -10 37 -10 93 l0 92 42 2 c27 2 48
-3 60 -14z m298 -103 c29 -18 55 13 58 69 4 75 22 62 22 -17 l0 -68 -44 -2
c-54 -2 -64 9 -66 73 -3 73 2 79 9 12 4 -35 12 -62 21 -67z m240 112 c0 -4
-10 -12 -22 -17 -19 -8 -24 -21 -29 -65 l-6 -55 -1 70 -2 70 30 2 c17 1 30 -1
30 -5z m178 -4 c5 -7 12 -38 14 -68 l3 -55 -45 -2 c-49 -2 -70 10 -70 38 0 22
28 39 64 39 19 0 26 5 26 19 0 24 -25 34 -50 21 -27 -14 -34 -12 -20 5 15 18
64 20 78 3z m1130 -18 c-7 -10 -14 -17 -17 -15 -4 4 18 35 25 35 2 0 -1 -9 -8
-20z m301 -14 c-3 -3 -11 5 -18 17 -13 21 -12 21 5 5 10 -10 16 -20 13 -22z
m-94 -40 c0 -13 -3 -22 -7 -19 -5 2 -8 13 -8 24 0 10 3 19 8 19 4 0 7 -11 7
-24z m-372 7 c-13 -2 -35 -2 -50 0 -16 2 -5 4 22 4 28 0 40 -2 28 -4z m47 -28
c0 -5 -5 -3 -10 5 -5 8 -10 20 -10 25 0 6 5 3 10 -5 5 -8 10 -19 10 -25z m121
-12 c13 -16 12 -17 -3 -4 -10 7 -18 15 -18 17 0 8 8 3 21 -13z m860 0 c13 -16
12 -17 -3 -4 -10 7 -18 15 -18 17 0 8 8 3 21 -13z m-11711 -759 c0 -2 -9 0
-20 6 -11 6 -20 13 -20 16 0 2 9 0 20 -6 11 -6 20 -13 20 -16z m259 -163 c318
-212 499 -353 961 -753 361 -311 350 -302 514 -406 147 -93 295 -168 479 -241
l127 -51 204 -5 c112 -3 214 -8 227 -11 29 -6 173 -6 203 1 75 16 137 22 271
25 50 1 101 7 114 12 14 5 27 5 30 0 3 -5 13 -10 21 -10 33 -4 57 -10 95 -27
40 -17 80 -19 228 -11 37 2 67 3 67 1 0 -1 -55 -18 -122 -36 -69 -19 -132 -42
-145 -54 l-23 -20 33 -35 c52 -56 118 -83 237 -97 l105 -12 -170 5 c-93 3
-213 9 -265 15 -126 13 -338 38 -375 45 -23 4 -26 3 -15 -5 13 -10 13 -11 0
-12 -35 -2 -61 -10 -106 -34 -27 -14 -65 -27 -86 -28 -21 -1 -38 -5 -38 -9 0
-5 -7 -8 -15 -8 -8 0 -15 -5 -15 -10 0 -7 -22 -9 -62 -4 -102 11 -182 12 -207
2 -20 -7 -22 -10 -10 -25 13 -15 12 -15 -11 -3 -42 21 -10 -6 98 -83 235 -167
395 -259 712 -409 l55 -25 -42 2 c-24 1 -43 1 -43 -1 0 -12 90 -46 127 -48 42
-2 43 -2 21 11 l-23 14 25 -7 c14 -3 43 -15 65 -25 34 -15 35 -17 10 -12 -29
6 -29 6 -14 -17 19 -29 60 -50 182 -97 100 -38 119 -59 26 -28 -27 9 -52 15
-55 12 -3 -2 51 -33 120 -68 68 -35 123 -65 122 -66 -2 -2 -110 48 -242 111
-342 162 -837 351 -1171 446 -123 35 -93 36 44 1 65 -16 150 -36 188 -45 39
-8 101 -24 140 -35 75 -22 115 -27 115 -12 0 10 -103 81 -117 81 -4 0 -35 20
-68 45 -33 25 -64 45 -68 45 -5 0 -39 21 -76 48 -103 73 -239 165 -274 185
-18 11 -43 29 -57 42 -28 26 -111 69 -152 79 -16 3 -28 11 -28 16 0 6 -7 10
-16 10 -8 0 -35 14 -59 30 -24 17 -46 30 -50 30 -3 0 -18 9 -33 20 -33 24 -62
32 -122 31 -41 0 -43 1 -20 10 15 7 20 13 13 16 -7 3 -13 12 -13 20 0 9 -3 13
-6 10 -4 -4 -29 9 -55 29 -27 20 -49 32 -49 27 0 -4 -5 0 -11 10 -5 9 -14 17
-19 17 -16 0 -147 101 -206 157 -19 18 -46 40 -61 50 -16 10 -36 28 -47 41
-10 13 -47 41 -82 63 -35 23 -64 44 -64 48 0 4 -15 15 -32 26 -62 35 -167 105
-172 114 -3 5 51 -22 122 -60 70 -38 129 -69 132 -69 12 0 8 44 -6 66 -9 13
-13 27 -10 32 15 25 -327 383 -509 533 -192 158 -493 376 -667 483 -43 27 -78
50 -78 53 0 8 60 -30 249 -156z m2132 -228 c13 -16 12 -17 -3 -4 -10 7 -18 15
-18 17 0 8 8 3 21 -13z m421 -281 c457 -271 906 -429 1318 -462 80 -7 154 -14
165 -15 11 -2 40 -4 65 -5 39 -2 42 -3 20 -10 -27 -10 19 -8 230 8 221 18 441
58 634 117 45 14 87 25 94 25 20 0 190 85 290 144 50 30 92 53 92 51 0 -2 -30
-26 -67 -52 -56 -39 -64 -49 -46 -51 12 -2 46 8 75 21 71 33 217 93 248 102
14 4 56 23 94 42 112 56 84 32 -52 -44 -202 -113 -416 -204 -667 -284 -82 -26
-185 -61 -227 -77 -82 -31 -97 -33 -50 -7 l27 16 -30 -5 c-16 -2 -84 -12 -150
-21 -66 -10 -124 -20 -130 -24 -11 -7 -497 4 -560 13 -33 5 -35 4 -15 -4 21
-8 19 -9 -15 -5 -22 3 -49 5 -60 6 l-20 0 20 10 c15 7 11 8 -17 5 -24 -2 -36
0 -31 7 4 6 -4 8 -21 5 -14 -3 -26 -1 -26 4 0 5 -17 8 -37 7 -59 -4 -95 0 -89
10 4 5 -3 7 -14 4 -12 -3 -20 0 -20 7 0 7 -8 9 -20 5 -12 -4 -20 -2 -20 5 0 8
-8 10 -21 7 -12 -3 -18 -3 -15 0 3 4 -44 22 -105 40 -222 67 -505 190 -719
311 -124 70 -396 247 -406 264 -4 6 27 -12 67 -39 41 -27 135 -86 211 -131z
m8075 -458 c-3 -3 -12 -4 -19 -1 -8 3 -5 6 6 6 11 1 17 -2 13 -5z m-167 -41
c-74 -19 -136 -38 -138 -44 -2 -5 -9 -9 -15 -9 -14 0 -200 -57 -242 -75 -16
-7 -73 -20 -125 -30 -54 -9 -112 -27 -135 -40 -22 -13 -67 -31 -100 -40 -69
-20 -298 -105 -427 -159 -129 -53 -404 -195 -504 -261 -49 -32 -129 -79 -179
-105 -51 -26 -127 -71 -171 -101 -43 -29 -92 -61 -109 -70 -94 -50 -168 -96
-230 -143 -77 -58 -125 -89 -125 -82 0 3 37 31 83 64 45 32 125 90 177 129
300 222 616 419 875 544 369 178 673 278 1250 409 244 56 311 64 115 13z
m-6470 -1613 c166 -51 347 -100 560 -154 96 -24 168 -45 160 -45 -8 0 -44 6
-80 15 -36 8 -76 12 -90 9 -20 -4 -22 -3 -10 6 12 8 9 9 -12 5 -30 -7 -120 12
-113 23 4 8 -104 36 -180 47 -22 3 -41 9 -43 14 -2 4 -12 5 -24 2 -14 -3 -19
-1 -14 6 7 12 -10 17 -47 14 -11 -1 -15 2 -11 9 5 9 -1 10 -20 5 -19 -5 -26
-3 -21 4 5 7 -2 9 -21 4 -21 -5 -25 -4 -19 6 6 10 4 12 -8 7 -10 -3 -17 -2
-17 2 0 5 -30 16 -67 26 -38 9 -79 23 -93 31 -25 15 -25 15 10 8 19 -3 91 -23
160 -44z m-294 -51 c8 -14 -10 -11 -32 6 -18 13 -18 14 4 8 12 -3 25 -9 28
-14z"/>
<path d="M10822 4563 c-5 -16 -13 -36 -17 -45 -6 -15 -1 -18 29 -18 20 0 36 4
36 9 0 12 -29 81 -34 81 -2 0 -9 -12 -14 -27z"/>
<path d="M12125 4585 c-17 -16 -25 -35 -25 -58 0 -88 106 -111 131 -29 14 47
-1 89 -36 102 -37 14 -43 13 -70 -15z"/>
<path d="M11052 4553 c-21 -8 -33 -50 -23 -77 12 -29 36 -39 62 -26 27 15 27
85 0 100 -11 5 -21 10 -23 9 -2 0 -9 -3 -16 -6z"/>
<path d="M11763 4493 c-18 -7 -16 -40 3 -47 22 -9 54 11 54 34 0 20 -27 26
-57 13z"/>
<path d="M6038 2543 c7 -3 16 -2 19 1 4 3 -2 6 -13 5 -11 0 -14 -3 -6 -6z"/>
<path d="M6258 2543 c6 -2 18 -2 25 0 6 3 1 5 -13 5 -14 0 -19 -2 -12 -5z"/>
</g>
</svg>
